<svg xmlns="http://www.w3.org/2000/svg" width="20" height="20" viewBox="0 0 20 20"><defs><style>.a{fill:none;}.b{fill:#fff;}</style></defs><path class="a" d="M0,0H20V20H0Z"/><path class="b" d="M10,2a8,8,0,1,0,8,8A8,8,0,0,0,10,2ZM6.056,15.024C6.4,14.3,8.5,13.6,10,13.6s3.608.7,3.944,1.424a6.34,6.34,0,0,1-7.888,0Zm9.032-1.16C13.944,12.472,11.168,12,10,12s-3.944.472-5.088,1.864a6.4,6.4,0,1,1,10.176,0ZM10,5.2A2.8,2.8,0,1,0,12.8,8,2.793,2.793,0,0,0,10,5.2Zm0,4A1.2,1.2,0,1,1,11.2,8,1.2,1.2,0,0,1,10,9.2Z"/></svg>