<svg xmlns="http://www.w3.org/2000/svg" width="16.817" height="16.817" viewBox="0 0 16.817 16.817"><defs><style>.a{fill:#949494;}</style></defs><path class="a" d="M14.846,1.314h-.788V0H12.744V1.314H4.073V0H2.759V1.314H1.971A1.973,1.973,0,0,0,0,3.285V14.846a1.973,1.973,0,0,0,1.971,1.971H14.846a1.973,1.973,0,0,0,1.971-1.971V3.285A1.973,1.973,0,0,0,14.846,1.314ZM15.5,14.846a.658.658,0,0,1-.657.657H1.971a.658.658,0,0,1-.657-.657V6.175H15.5Zm0-9.985H1.314V3.285a.658.658,0,0,1,.657-.657h.788V3.941H4.073V2.628h8.671V3.941h1.314V2.628h.788a.658.658,0,0,1,.657.657Z"/><g transform="translate(2.685 7.693)"><g transform="translate(0 0)"><rect class="a" width="1" height="1" transform="translate(0.381 0.372)"/></g></g><g transform="translate(4.831 7.693)"><g transform="translate(0 0)"><rect class="a" width="1" height="1" transform="translate(0.233 0.372)"/></g></g><g transform="translate(7.693 7.693)"><g transform="translate(0 0)"><rect class="a" width="1" height="1" transform="translate(0.372 0.372)"/></g></g><g transform="translate(10.555 7.693)"><g transform="translate(0 0)"><rect class="a" width="2" height="1" transform="translate(-0.49 0.372)"/></g></g><g transform="translate(12.701 7.693)"><g transform="translate(0 0)"><rect class="a" width="1" height="1" transform="translate(0.364 0.372)"/></g></g><g transform="translate(2.685 10.555)"><g transform="translate(0 0)"><rect class="a" width="1" height="2" transform="translate(0.381 -0.49)"/></g></g><g transform="translate(4.831 10.555)"><g transform="translate(0 0)"><rect class="a" width="1" height="2" transform="translate(0.233 -0.49)"/></g></g><g transform="translate(7.693 10.555)"><g transform="translate(0 0)"><rect class="a" width="1" height="2" transform="translate(0.372 -0.49)"/></g></g><g transform="translate(10.555 10.555)"><g transform="translate(0 0)"><rect class="a" width="2" height="2" transform="translate(-0.49 -0.49)"/></g></g><g transform="translate(2.685 12.701)"><g transform="translate(0 0)"><rect class="a" width="1" height="1" transform="translate(0.381 0.364)"/></g></g><g transform="translate(4.831 12.701)"><g transform="translate(0 0)"><rect class="a" width="1" height="1" transform="translate(0.233 0.364)"/></g></g><g transform="translate(7.693 12.701)"><g transform="translate(0 0)"><rect class="a" width="1" height="1" transform="translate(0.372 0.364)"/></g></g><g transform="translate(10.555 12.701)"><g transform="translate(0 0)"><rect class="a" width="2" height="1" transform="translate(-0.49 0.364)"/></g></g><g transform="translate(12.701 10.555)"><g transform="translate(0 0)"><rect class="a" width="1" height="2" transform="translate(0.364 -0.49)"/></g></g></svg>