<svg xmlns="http://www.w3.org/2000/svg" width="23.258" height="18.306" viewBox="0 0 23.258 18.306">
  <g id="camera" transform="translate(0 -44.8)">
    <g id="Group_1183" data-name="Group 1183" transform="translate(0 44.8)">
      <g id="Group_1182" data-name="Group 1182" transform="translate(0 0)">
        <path id="Path_68968" data-name="Path 68968" d="M22.484,47.652a2.5,2.5,0,0,0-1.835-.774h-3.67v-.044a1.985,1.985,0,0,0-.6-1.437,2.023,2.023,0,0,0-1.437-.6H8.313a2.038,2.038,0,0,0-2.056,2.034v.044H2.609a2.5,2.5,0,0,0-1.835.774A2.628,2.628,0,0,0,0,49.487V60.5a2.5,2.5,0,0,0,.774,1.835,2.628,2.628,0,0,0,1.835.774h18.04a2.5,2.5,0,0,0,1.835-.774,2.628,2.628,0,0,0,.774-1.835V49.487A2.5,2.5,0,0,0,22.484,47.652ZM22.108,60.5h-.022a1.434,1.434,0,0,1-1.437,1.437H2.609A1.434,1.434,0,0,1,1.172,60.5V49.487A1.434,1.434,0,0,1,2.609,48.05H6.876a.594.594,0,0,0,.6-.6v-.641a.832.832,0,0,1,.862-.862h6.61a.832.832,0,0,1,.862.862v.641a.594.594,0,0,0,.6.6h4.267a1.434,1.434,0,0,1,1.437,1.437Z" transform="translate(0 -44.8)" fill="#5c5c5c"/>
        <path id="Path_68969" data-name="Path 68969" d="M117.439,130.8a5.435,5.435,0,1,0,3.847,1.592A5.448,5.448,0,0,0,117.439,130.8Zm3.007,8.468a4.27,4.27,0,0,1-6.014,0,4.226,4.226,0,0,1-1.238-3.007,4.32,4.32,0,0,1,1.238-3.007,4.226,4.226,0,0,1,3.007-1.238,4.32,4.32,0,0,1,3.007,1.238,4.226,4.226,0,0,1,1.238,3.007A4.137,4.137,0,0,1,120.445,139.268Z" transform="translate(-105.81 -126.047)" fill="#5c5c5c"/>
        <circle id="Ellipse_113" data-name="Ellipse 113" cx="1.083" cy="1.083" r="1.083" transform="translate(18.416 4.731)" fill="#5c5c5c"/>
      </g>
    </g>
  </g>
</svg>
