<svg xmlns="http://www.w3.org/2000/svg" width="16.941" height="16.941" viewBox="0 0 16.941 16.941"><defs><style>.a{fill:#fff;}</style></defs><g transform="translate(4.022 2.128)"><path class="a" d="M134,64.515a.638.638,0,0,0-.9,0l-7.66,7.64-2.764-3a.638.638,0,1,0-.939.865l3.214,3.49a.638.638,0,0,0,.456.206h.014a.639.639,0,0,0,.451-.186L134,65.418A.638.638,0,0,0,134,64.515Z" transform="translate(-121.568 -64.327)"/></g><g transform="translate(0 0)"><path class="a" d="M16.3,7.832a.638.638,0,0,0-.638.639A7.194,7.194,0,1,1,8.471,1.277.638.638,0,1,0,8.471,0a8.471,8.471,0,1,0,8.471,8.471A.638.638,0,0,0,16.3,7.832Z" transform="translate(0 0)"/></g></svg>