<svg xmlns="http://www.w3.org/2000/svg" width="19.504" height="19.493" viewBox="0 0 19.504 19.493">
  <g id="clock" transform="translate(0.35 0.343)">
    <path id="Path_69730" data-name="Path 69730" d="M8.742,15.878c-.173.012-.349.018-.523.018a7.66,7.66,0,1,1,7.392-5.619.275.275,0,0,0,.531.147,8.221,8.221,0,1,0-7.922,6.023c.186,0,.375-.006.56-.019a.275.275,0,1,0-.037-.549Z" fill="#949494" stroke="#949494" stroke-width="0.7"/>
    <path id="Path_69732" data-name="Path 69732" d="M256.555,281.4l-3.127-5.417a.972.972,0,0,0-1.684,0l-3.127,5.417a.972.972,0,0,0,.842,1.458h6.254a.972.972,0,0,0,.842-1.458Zm-.4.739a.5.5,0,0,1-.438.253h-6.254a.505.505,0,0,1-.437-.758l3.127-5.417a.505.505,0,0,1,.875,0l3.127,5.417A.5.5,0,0,1,256.151,282.143Z" transform="translate(-237.895 -264.063)" fill="#949494" stroke="#949494" stroke-width="0.7"/>
    <path id="Path_69733" data-name="Path 69733" d="M372.783,329.793c-.129,0-.233.078-.233.175v2.244c0,.1.1.175.233.175s.233-.078.233-.175v-2.244C373.017,329.871,372.912,329.793,372.783,329.793Z" transform="translate(-358.099 -316.291)" fill="#949494" stroke="#949494" stroke-width="0.7"/>
    <path id="Path_69734" data-name="Path 69734" d="M116.67,116.609h4.312a.277.277,0,0,0,0-.551H116.67a.793.793,0,0,0-.74-.588.715.715,0,0,0-.347.09l-2.933-3.246a.232.232,0,0,0-.352,0,.3.3,0,0,0,0,.389l2.933,3.246a.934.934,0,0,0-.082.384.826.826,0,0,0,.78.864A.793.793,0,0,0,116.67,116.609Zm-.74.038a.315.315,0,1,1,.283-.313A.3.3,0,0,1,115.93,116.647Z" transform="translate(-108.106 -107.107)" fill="#949494" stroke="#949494" stroke-width="0.7"/>
    <ellipse id="Ellipse_163" data-name="Ellipse 163" cx="0.233" cy="0.233" rx="0.233" ry="0.233" transform="translate(14.46 17.12)" fill="#949494" stroke="#949494" stroke-width="0.7"/>
  </g>
</svg>
