<svg xmlns="http://www.w3.org/2000/svg" width="14.845" height="18.278" viewBox="0 0 14.845 18.278"><defs><style>.a{fill:#5c5c5c;}</style></defs><g transform="translate(0 0)"><path class="a" d="M222.826,154.7a.428.428,0,0,0-.428.428v8.09a.428.428,0,0,0,.856,0v-8.09A.428.428,0,0,0,222.826,154.7Zm0,0" transform="translate(-212.878 -148.081)"/><path class="a" d="M104.826,154.7a.428.428,0,0,0-.428.428v8.09a.428.428,0,0,0,.856,0v-8.09A.428.428,0,0,0,104.826,154.7Zm0,0" transform="translate(-99.929 -148.081)"/><path class="a" d="M1.212,5.44V15.987a2.362,2.362,0,0,0,.628,1.629,2.108,2.108,0,0,0,1.53.661h8.1A2.107,2.107,0,0,0,13,17.616a2.362,2.362,0,0,0,.628-1.629V5.44a1.635,1.635,0,0,0-.42-3.216H11.015V1.689A1.681,1.681,0,0,0,9.32,0h-3.8a1.681,1.681,0,0,0-1.7,1.691v.535H1.632a1.635,1.635,0,0,0-.42,3.216ZM11.469,17.421H3.37a1.356,1.356,0,0,1-1.3-1.434V5.478h10.7V15.987a1.356,1.356,0,0,1-1.3,1.434ZM4.68,1.689A.825.825,0,0,1,5.519.855h3.8a.825.825,0,0,1,.839.835v.535H4.68ZM1.632,3.081H13.207a.771.771,0,0,1,0,1.541H1.632a.771.771,0,0,1,0-1.541Zm0,0" transform="translate(0.003 0.001)"/><path class="a" d="M163.826,154.7a.428.428,0,0,0-.428.428v8.09a.428.428,0,0,0,.856,0v-8.09A.428.428,0,0,0,163.826,154.7Zm0,0" transform="translate(-156.403 -148.081)"/></g></svg>