<svg xmlns="http://www.w3.org/2000/svg" width="20.823" height="20.718" viewBox="0 0 20.823 20.718">
  <g id="edit_1_" data-name="edit (1)" transform="translate(0 -0.261)">
    <path id="Path_68440" data-name="Path 68440" d="M19.218,50.156a.519.519,0,0,0-.519.519v4.6a1.557,1.557,0,0,1-1.556,1.556H2.593a1.557,1.557,0,0,1-1.556-1.556V41.765a1.558,1.558,0,0,1,1.556-1.556H7.2a.519.519,0,0,0,0-1.037h-4.6A2.6,2.6,0,0,0,0,41.765V55.279a2.6,2.6,0,0,0,2.593,2.593H17.144a2.6,2.6,0,0,0,2.593-2.593v-4.6a.519.519,0,0,0-.519-.519Zm0,0" transform="translate(0 -36.893)" fill="#888"/>
    <path id="Path_68441" data-name="Path 68441" d="M122.111.944a2.334,2.334,0,0,0-3.3,0L109.559,10.2a.518.518,0,0,0-.133.228l-1.217,4.392a.518.518,0,0,0,.638.638l4.392-1.217a.518.518,0,0,0,.228-.133l9.252-9.252a2.336,2.336,0,0,0,0-3.3Zm-11.422,9.589,7.572-7.572L120.7,5.4l-7.572,7.572Zm-.488.979,1.951,1.951-2.7.748ZM121.986,4.12l-.55.55-2.442-2.442.55-.55a1.3,1.3,0,0,1,1.833,0l.609.609A1.3,1.3,0,0,1,121.986,4.12Zm0,0" transform="translate(-102.58)" fill="#888"/>
  </g>
</svg>
