<svg id="Layer_1" data-name="Layer 1" xmlns="http://www.w3.org/2000/svg" viewBox="0 0 510.14 507.59"><defs><style>.cls-1{fill:#fff;}</style></defs><path id="Path_68440" data-name="Path 68440" class="cls-1" d="M471.83,320.82a12.71,12.71,0,0,0-12.71,12.71h0V446.21A38.17,38.17,0,0,1,421,484.36H64.51a38.16,38.16,0,0,1-38.12-38.15v-331a38.16,38.16,0,0,1,38.12-38.1H177.38a12.72,12.72,0,0,0,0-25.41H64.68A63.69,63.69,0,0,0,1,115.21v331.1a63.69,63.69,0,0,0,63.53,63.53H421a63.71,63.71,0,0,0,63.53-63.53V333.63a12.73,12.73,0,0,0-12.72-12.72h0Z" transform="translate(-0.98 -2.24)"/><path id="Path_68441" data-name="Path 68441" class="cls-1" d="M479.5,19a57.16,57.16,0,0,0-80.85,0L172,245.77a12.71,12.71,0,0,0-3.26,5.59L138.9,359a12.7,12.7,0,0,0,15.63,15.64l107.61-29.82a12.86,12.86,0,0,0,5.59-3.26L494.4,114.84a57.24,57.24,0,0,0,0-80.85ZM199.66,253.93,385.17,68.41,445,128.21,259.41,313.69Zm-12,24,47.8,47.8-66.15,18.32ZM476.44,96.81,463,110.28,403.13,50.45,416.61,37a31.85,31.85,0,0,1,44.91,0L476.44,51.9a31.85,31.85,0,0,1,0,44.91Z" transform="translate(-0.98 -2.24)"/></svg>