<svg xmlns="http://www.w3.org/2000/svg" width="33.415" height="33.946" viewBox="0 0 33.415 33.946"><defs><style>.a{fill:#1f3ad1;}</style></defs><g transform="translate(-0.977)"><g transform="translate(0.977)"><path class="a" d="M41.179,58.9l-.521,3.093a1.128,1.128,0,0,0,1.635,1.189l2.781-1.452,2.781,1.452a1.128,1.128,0,0,0,1.636-1.189l-.52-3.093,2.239-2.2a1.128,1.128,0,0,0-.625-1.923l-3.1-.46-1.4-2.809a1.129,1.129,0,0,0-2.022,0l-1.4,2.809-3.1.46a1.129,1.129,0,0,0-.625,1.923Z" transform="translate(-28.367 -37.046)"/><path class="a" d="M31.021,3.609H27.468V1.638A1.638,1.638,0,0,0,25.829,0h-.26a1.638,1.638,0,0,0-1.638,1.638V3.609H11.395V1.638A1.638,1.638,0,0,0,9.757,0H9.5A1.638,1.638,0,0,0,7.86,1.638V3.609H4.348A3.375,3.375,0,0,0,.977,6.98v23.6a3.375,3.375,0,0,0,3.371,3.371H31.021a3.375,3.375,0,0,0,3.371-3.371V6.98A3.375,3.375,0,0,0,31.021,3.609Zm-.44,26.527H4.788V11.768H30.581Z" transform="translate(-0.977)"/></g></g></svg>