<svg xmlns="http://www.w3.org/2000/svg" width="15.771" height="17.004" viewBox="0 0 15.771 17.004">
  <g id="face-detection" transform="translate(-38.8 0.2)">
    <path id="Path_69641" data-name="Path 69641" d="M39.179,16.278v-.413A4.36,4.36,0,0,1,41.5,12.109a12.535,12.535,0,0,1,3.073-1.186V10.4a3.122,3.122,0,0,1-.49-.495A7.643,7.643,0,0,1,43.045,8.15a.747.747,0,0,1-.575-.39c-.108-.209-.858-1.477-.972-1.7a.958.958,0,0,1,.572-1.319,1.22,1.22,0,0,1,.247-.065,3.469,3.469,0,0,1-.118-.9A3.968,3.968,0,0,1,46.328,0a1.607,1.607,0,0,1,1.067.394.008.008,0,0,0,.011,0A1.607,1.607,0,0,1,48.473,0a2.7,2.7,0,0,1,2.806,2.566v.6a5.062,5.062,0,0,1-.229,1.506,1.07,1.07,0,0,1,.253.067.956.956,0,0,1,.572,1.319c-.121.223-.864,1.493-.972,1.7a.747.747,0,0,1-.574.39A7.643,7.643,0,0,1,49.285,9.9a3.125,3.125,0,0,1-.491.5v.526a12.536,12.536,0,0,1,3.073,1.186,4.36,4.36,0,0,1,2.324,3.756v.414a.343.343,0,0,1-.357.327H46.685c-.2,0-.19-.654,0-.654h6.792A3.729,3.729,0,0,0,51.5,12.669a11.764,11.764,0,0,0-2.747-1.08,2.154,2.154,0,0,1-4.136,0,11.767,11.767,0,0,0-2.747,1.08,3.685,3.685,0,0,0-1.977,3.281h6.792s.19.654,0,.654H39.536A.343.343,0,0,1,39.179,16.278ZM42.916,3.825a1.907,1.907,0,0,1,1.375-.589,1.93,1.93,0,0,1,1.152.375,1.785,1.785,0,0,0,1.064.344,1.625,1.625,0,0,0,1.68-1.542.36.36,0,0,1,.715,0,1.046,1.046,0,0,0,.641.945,2.325,2.325,0,0,1,.929.71,4.463,4.463,0,0,0,.092-.905v-.6A2.01,2.01,0,0,0,48.473.654a.859.859,0,0,0-.57.211.769.769,0,0,1-1,0,.859.859,0,0,0-.57-.211A3.265,3.265,0,0,0,42.916,3.825Zm5.164,7.006a3.5,3.5,0,0,1-2.788,0v.38a1.4,1.4,0,0,0,2.788,0Zm.626-1.313A6.965,6.965,0,0,0,49.749,7.69a.365.365,0,0,1,.491-.186c.133-.258.879-1.521.988-1.73a.329.329,0,0,0-.2-.438.418.418,0,0,0-.326.015.365.365,0,0,1-.525-.243,1.5,1.5,0,0,0-.934-1.159,1.775,1.775,0,0,1-.647-.47,2.57,2.57,0,0,1-.4.487,2.549,2.549,0,0,1-3.2.151,1.177,1.177,0,0,0-1.467.068,1.026,1.026,0,0,0-.342.744v.129a.358.358,0,0,1-.518.292.42.42,0,0,0-.315-.01.325.325,0,0,0-.2.438c.107.21.87,1.491.984,1.725a.374.374,0,0,1,.5.191,6.975,6.975,0,0,0,1.043,1.824,2.624,2.624,0,0,0,4.039,0Zm5.666-7.557V.327A.343.343,0,0,0,54.013,0H52.226a.343.343,0,0,0-.357.327.343.343,0,0,0,.357.327h1.43V1.961a.359.359,0,0,0,.715,0Zm0,8.923V9.25a.359.359,0,0,0-.715,0v1.307h-1.43a.328.328,0,1,0,0,.654h1.787A.343.343,0,0,0,54.371,10.884ZM39.715,1.961V.654h1.43A.343.343,0,0,0,41.5.327.343.343,0,0,0,41.145,0H39.357A.343.343,0,0,0,39,.327V1.961a.359.359,0,0,0,.715,0ZM41.5,10.884a.343.343,0,0,0-.357-.327h-1.43V9.25a.359.359,0,0,0-.715,0v1.634a.343.343,0,0,0,.357.327h1.787A.343.343,0,0,0,41.5,10.884Z" transform="translate(0 0)" fill="#949494" stroke="#949494" stroke-width="0.4"/>
  </g>
</svg>
