<svg xmlns="http://www.w3.org/2000/svg" width="20.536" height="17.999" viewBox="0 0 20.536 17.999">
  <g id="gallery_1_" data-name="gallery (1)" transform="translate(0 -26.576)">
    <g id="Group_1185" data-name="Group 1185" transform="translate(0 26.576)">
      <g id="Group_1184" data-name="Group 1184" transform="translate(0 0)">
        <path id="Path_68970" data-name="Path 68970" d="M176.084,159.668a2.095,2.095,0,1,0,2.095,2.095A2.095,2.095,0,0,0,176.084,159.668Zm0,3.192a1.1,1.1,0,1,1,0-2.195h0a1.1,1.1,0,1,1,0,2.195Z" transform="translate(-165.684 -153.315)" fill="#5c5c5c"/>
        <path id="Path_68971" data-name="Path 68971" d="M18.754,28.14,5.138,26.594a1.87,1.87,0,0,0-1.471.424,1.9,1.9,0,0,0-.723,1.3L2.694,30.36H1.921A2,2,0,0,0,0,32.43v10.2a1.9,1.9,0,0,0,1.845,1.945H15.612a2.047,2.047,0,0,0,2.095-1.945v-.4a2.494,2.494,0,0,0,.948-.4,2.07,2.07,0,0,0,.723-1.347L20.524,30.36A2.02,2.02,0,0,0,18.754,28.14ZM16.709,42.629a1.05,1.05,0,0,1-1.1.948H1.921A.9.9,0,0,1,1,42.706q0-.038,0-.077V40.784l3.865-2.843a1.2,1.2,0,0,1,1.546.075L9.128,40.41a2.344,2.344,0,0,0,1.471.549,2.269,2.269,0,0,0,1.2-.324l4.913-2.843v4.838Zm0-6.01-5.436,3.167A1.272,1.272,0,0,1,9.8,39.662L7.058,37.243a2.22,2.22,0,0,0-2.768-.1L1,39.537V32.43a1.007,1.007,0,0,1,.923-1.072H15.612a1.147,1.147,0,0,1,1.1,1.072v4.19Zm2.819-6.394v.01L18.355,40.36a.848.848,0,0,1-.324.673c-.1.1-.324.15-.324.2v-8.8a2.145,2.145,0,0,0-2.095-2.07H3.691l.224-1.945a1.147,1.147,0,0,1,.374-.648,1.147,1.147,0,0,1,.748-.2l13.591,1.571A1,1,0,0,1,19.528,30.225Z" transform="translate(0 -26.576)" fill="#5c5c5c"/>
      </g>
    </g>
  </g>
</svg>
