<svg xmlns="http://www.w3.org/2000/svg" width="15.797" height="17.897" viewBox="0 0 15.797 17.897"><defs><style>.a{fill:#949494;stroke:#949494;stroke-width:0.4px;}.b{fill:#e80808;stroke:#fff;stroke-width:1.8px;}.c{stroke:none;}.d{fill:none;}</style></defs><g transform="translate(-1125.379 -23.345)"><path class="a" d="M244.634,84.924a2.719,2.719,0,0,1-.826-1.125,13.016,13.016,0,0,1-.861-5.143c0-.007,0-.013,0-.02a4.964,4.964,0,0,0-2.922-4.5V72.949A1.95,1.95,0,0,0,238.078,71h-.161a1.95,1.95,0,0,0-1.946,1.949v1.184a4.965,4.965,0,0,0-2.923,4.522,13.016,13.016,0,0,1-.861,5.143,2.719,2.719,0,0,1-.826,1.125.5.5,0,0,0-.274.567.521.521,0,0,0,.514.4h3.757a2.639,2.639,0,0,0,5.278,0h3.757a.522.522,0,0,0,.514-.4.5.5,0,0,0-.274-.567ZM237,72.949a.923.923,0,0,1,.921-.922h.161a.923.923,0,0,1,.921.922V73.8a4.963,4.963,0,0,0-2,0Zm1,14.521a1.618,1.618,0,0,1-1.614-1.579h3.228A1.618,1.618,0,0,1,238,87.47Zm2.064-2.605h-7.292a5.388,5.388,0,0,0,.269-.472,12.978,12.978,0,0,0,1.035-5.737,3.924,3.924,0,1,1,7.848,0c0,.006,0,.013,0,.019a12.952,12.952,0,0,0,1.035,5.717,5.4,5.4,0,0,0,.269.472Zm0,0" transform="translate(894.51 -47.455)"/><g class="b" transform="translate(1135.176 25.525)"><circle class="c" cx="3" cy="3" r="3"/><circle class="d" cx="3" cy="3" r="2.1"/></g></g></svg>