<svg id="Group_2594" data-name="Group 2594" xmlns="http://www.w3.org/2000/svg" width="35" height="34" viewBox="0 0 35 34">
  <ellipse id="Ellipse_63" data-name="Ellipse 63" cx="17.5" cy="17" rx="17.5" ry="17" fill="#fafafa" opacity="0"/>
  <path id="letter-x" d="M.194,1.138a.679.679,0,0,1,0-.946.679.679,0,0,1,.946,0L6.819,5.88,12.506.192a.666.666,0,1,1,.937.946L7.765,6.817,13.443,12.5a.666.666,0,1,1-.937.946L6.819,7.763,1.14,13.451a.679.679,0,0,1-.946,0,.679.679,0,0,1,0-.946L5.872,6.817Z" transform="translate(10.998 10.012)" fill="#5c5c5c"/>
</svg>
