<svg xmlns="http://www.w3.org/2000/svg" width="17.863" height="17.854" viewBox="0 0 17.863 17.854">
  <g id="location" transform="translate(-4.202 -4.209)">
    <path id="Path_69524" data-name="Path 69524" d="M53.487,24.378a2.132,2.132,0,1,0-2.132,2.133A2.132,2.132,0,0,0,53.487,24.378Zm-3.759,0a1.627,1.627,0,1,1,1.627,1.627,1.627,1.627,0,0,1-1.627-1.627Z" transform="translate(-38.222 -15.134)" fill="#949494" stroke="#949494" stroke-width="0.7"/>
    <path id="Path_69525" data-name="Path 69525" d="M21.694,21.371l-2.058-5.4a.253.253,0,0,0-.236-.162H15.5l.071-.115a12.968,12.968,0,0,0,2.243-6.452,4.684,4.684,0,1,0-9.369,0A12.967,12.967,0,0,0,10.692,15.7l.071.115h-3.9a.253.253,0,0,0-.236.162l-2.058,5.4a.252.252,0,0,0,.236.343H21.458a.252.252,0,0,0,.236-.343ZM8.954,9.243a4.179,4.179,0,0,1,8.359,0c.022,3.588-3.332,8.011-4.179,9.072-.848-1.06-4.2-5.483-4.179-9.073Zm3.987,9.636a.253.253,0,0,0,.385,0,26.8,26.8,0,0,0,1.861-2.563h4.038l.323.848-7.892,2.807L8.844,16.316h2.235a26.8,26.8,0,0,0,1.862,2.563ZM11.648,20.51h0l4.708-1.674,1.826,2.373h-8.5ZM7.041,16.316H8.207l2.95,3.833L8.178,21.208h-3Zm11.781,4.892-1.964-2.551,2.871-1.021,1.363,3.573Z" transform="translate(0)" fill="#949494" stroke="#949494" stroke-width="0.7"/>
  </g>
</svg>
