<svg xmlns="http://www.w3.org/2000/svg" width="17.644" height="17.642" viewBox="0 0 17.644 17.642"><defs><style>.a{fill:#949494;stroke:#949494;stroke-width:0.5px;}</style></defs><g transform="translate(0.25 0.248)"><g transform="translate(0 16.43)"><path class="a" d="M12.5,23.714H.357a.357.357,0,0,1,0-.714H12.5a.357.357,0,0,1,0,.714Z" transform="translate(0 -23)"/></g><g transform="translate(10.247 0.002)"><path class="a" d="M19.362,6.921h0A1.066,1.066,0,0,1,18.6,6.6L14.654,2.612A1.074,1.074,0,0,1,14.659,1.1l.786-.786a1.072,1.072,0,0,1,1.515,0l3.969,3.968a1.073,1.073,0,0,1,0,1.516l-.809.809A1.068,1.068,0,0,1,19.362,6.921ZM16.2.715a.356.356,0,0,0-.253.1l-.786.786a.358.358,0,0,0,0,.5L19.107,6.1a.354.354,0,0,0,.253.106.512.512,0,0,0,.254-.105l.809-.808a.358.358,0,0,0,0-.506L16.453.819a.355.355,0,0,0-.251-.1Zm-1.29.638h.007Z" transform="translate(-14.345 -0.002)"/></g><g transform="translate(3.653 2.182)"><path class="a" d="M5.643,9.863A.358.358,0,0,1,5.3,9.609a4.4,4.4,0,0,1-.186-1.267,4.486,4.486,0,0,1,.465-1.972,4.433,4.433,0,0,1,2.876-2.31l3.907-.993a.357.357,0,0,1,.176.691l-3.907.993A3.72,3.72,0,0,0,6.219,6.687a3.76,3.76,0,0,0-.391,1.654A3.69,3.69,0,0,0,5.984,9.4a.357.357,0,0,1-.239.445.391.391,0,0,1-.1.014Z" transform="translate(-5.114 -3.054)"/></g><g transform="translate(6.345 5.798)"><path class="a" d="M10.562,16.242a1.6,1.6,0,0,1-1.388-.791,1.662,1.662,0,0,1,.3-2.014l2.522-2.527a1.493,1.493,0,0,0-2.441.219.358.358,0,0,1-.621-.354,2.208,2.208,0,0,1,3.71-.194l.111.155a.358.358,0,0,1-.031.455l-2.746,2.75a.96.96,0,0,0-.187,1.144.931.931,0,0,0,1.422.175l3.1-3.15L16.8,8.279a.357.357,0,1,1,.6.389L14.888,12.53a.344.344,0,0,1-.045.057l-3.128,3.177A1.615,1.615,0,0,1,10.562,16.242Z" transform="translate(-8.883 -8.116)"/></g><g transform="translate(1.429 8.573)"><path class="a" d="M11.655,20.572h-9.3A.357.357,0,0,1,2,20.215V12.357A.357.357,0,0,1,2.357,12h7.837a.357.357,0,1,1,0,.714H2.714v7.143H11.3V14.43a.357.357,0,0,1,.714,0v5.785A.357.357,0,0,1,11.655,20.572Z" transform="translate(-2 -12)"/></g></g></svg>