<svg xmlns="http://www.w3.org/2000/svg" width="18.406" height="14.639" viewBox="0 0 18.406 14.639">
  <g id="handshake" transform="translate(0.178 -99.454)">
    <path id="Path_69599" data-name="Path 69599" d="M17.979,103.688l-3.022-3.925a.354.354,0,0,0-.471-.083l-1.951,1.241H9.992a.351.351,0,0,0-.1.016l-1.973.568-2.047-.56L3.885,99.681a.354.354,0,0,0-.465.076L.078,103.9a.354.354,0,0,0,.045.491l1.752,1.508,1.572,2.118a1.25,1.25,0,0,0,.786,2.1,1.259,1.259,0,0,0-.015.191,1.251,1.251,0,0,0,1.251,1.251h.013c0,.009,0,.017,0,.025a1.251,1.251,0,0,0,1.251,1.251,1.276,1.276,0,0,0,.2-.015,1.251,1.251,0,0,0,2.129.762l.191-.191.08.065a1.25,1.25,0,0,0,2.12-.919,1.249,1.249,0,0,0,1.27-1.269,1.25,1.25,0,0,0,1.27-1.27,1.25,1.25,0,0,0,1.069-1.932l1.147-2.4,1.725-1.485a.354.354,0,0,0,.05-.484ZM3.772,100.448l1.43.909-3.111,3.791L.844,104.074Zm.2,8.037.432-.432c.013-.013.027-.025.041-.037a.542.542,0,0,1,.295-.12h.009l.046,0a.54.54,0,0,1,.387.17.557.557,0,0,1-.024.77l-.419.419a.543.543,0,0,1-.768-.768Zm1.111,2.2a.543.543,0,0,1,0-.768l.837-.837a.549.549,0,0,1,.617-.107.541.541,0,0,1,.3.561.573.573,0,0,1-.162.327l-.824.824a.543.543,0,0,1-.768,0Zm1.264,1.276a.543.543,0,0,1,0-.768l.837-.837a.549.549,0,0,1,.656-.086.54.54,0,0,1,.259.549.574.574,0,0,1-.161.319l-.824.824a.543.543,0,0,1-.768,0Zm1.44,1.113a.544.544,0,0,1,0-.768l.432-.432c.013-.013.027-.025.041-.037h0a.541.541,0,0,1,.241-.112h.006l.046-.006h.057a.539.539,0,0,1,.387.17.486.486,0,0,1,.035.041.56.56,0,0,1-.061.731l-.416.416a.544.544,0,0,1-.768,0Zm6.6-3.951a.544.544,0,0,1-.768,0L13.6,109.1l-2.276-2.3a.354.354,0,0,0-.5.5l2.3,2.325h0a.543.543,0,1,1-.768.768l-1.539-1.555a.354.354,0,0,0-.5.5l1.516,1.531a.335.335,0,0,0,.025.028.543.543,0,1,1-.768.768l-.84-.849a.354.354,0,0,0-.5.5l.817.825a.323.323,0,0,0,.025.028.543.543,0,0,1-.768.768.784.784,0,0,0-.08-.064c-.023-.018-.029-.03-.018-.058s.029-.054.041-.083.023-.065.034-.1a1.276,1.276,0,0,0,.046-.545,1.238,1.238,0,0,0-1.055-1.066,1.263,1.263,0,0,0-.3-1.139,1.242,1.242,0,0,0-.892-.391H7.549a1.239,1.239,0,0,0-1.226-1.276,1.273,1.273,0,0,0-.3.032,1.247,1.247,0,0,0-2.069-.741l-1.368-1.844,3.274-3.988,1.043.285-1.363,2.4a1.251,1.251,0,0,0,.472,1.705l.055.029,0,0a1.259,1.259,0,0,0,.15.063,1.251,1.251,0,0,0,1.5-.566l.886-1.563,1.581.112,4.21,4.21a.544.544,0,0,1,0,.768Zm.147-1.623-3.95-3.949-.023-.021a.354.354,0,0,0-.2-.081l-1.936-.137a.36.36,0,0,0-.333.179l-1,1.757a.543.543,0,1,1-.945-.536l1.329-2.346.539-.155.011,0,2.01-.58h2.429l3.032,3.854Zm1.428-2.575-2.8-3.566,1.431-.91,2.62,3.4Zm0,0" transform="translate(0 0)" fill="#949494" stroke="#949494" stroke-width="0.3"/>
  </g>
</svg>
