<svg xmlns="http://www.w3.org/2000/svg" width="18.892" height="15.76" viewBox="0 0 18.892 15.76"><defs><style>.a{fill:#949494;stroke:#949494;stroke-width:0.1px;}</style></defs><g transform="translate(0.05 0.05)"><path class="a" d="M16.639,56.762H2.153A2.155,2.155,0,0,1,0,54.609V44.821a2.155,2.155,0,0,1,2.153-2.153h4.7a.587.587,0,1,1,0,1.175h-4.7a.98.98,0,0,0-.979.979v9.788a.98.98,0,0,0,.979.979H16.639a.98.98,0,0,0,.979-.979V44.821a.98.98,0,0,0-.979-.979h-4.7a.587.587,0,1,1,0-1.175h4.7a2.155,2.155,0,0,1,2.153,2.153v9.788A2.155,2.155,0,0,1,16.639,56.762Zm0,0" transform="translate(0 -41.102)"/><path class="a" d="M175.562,4.306h-3.524a1.372,1.372,0,0,1-1.37-1.37V1.37A1.372,1.372,0,0,1,172.038,0h3.524a1.372,1.372,0,0,1,1.37,1.37V2.936A1.372,1.372,0,0,1,175.562,4.306Zm-3.524-3.132a.2.2,0,0,0-.2.2V2.936a.2.2,0,0,0,.2.2h3.524a.2.2,0,0,0,.2-.2V1.37a.2.2,0,0,0-.2-.2Zm0,0" transform="translate(-164.404)"/><path class="a" d="M108.625,153.247a1.958,1.958,0,1,1,1.957-1.957A1.96,1.96,0,0,1,108.625,153.247Zm0-2.741a.783.783,0,1,0,.783.783A.784.784,0,0,0,108.625,150.507Zm0,0" transform="translate(-102.753 -143.851)"/><path class="a" d="M70.46,280.464a.587.587,0,0,1-.587-.587v-.392a.98.98,0,0,0-.979-.979h-2.74a.98.98,0,0,0-.979.979v.392a.587.587,0,0,1-1.175,0v-.392a2.155,2.155,0,0,1,2.153-2.153h2.74a2.155,2.155,0,0,1,2.153,2.153v.392A.587.587,0,0,1,70.46,280.464Zm0,0" transform="translate(-61.651 -267.153)"/><path class="a" d="M303.562,161.175h-4.306a.587.587,0,0,1,0-1.175h4.306a.587.587,0,1,1,0,1.175Zm0,0" transform="translate(-287.706 -154.127)"/><path class="a" d="M303.562,246.507h-4.306a.587.587,0,0,1,0-1.174h4.306a.587.587,0,1,1,0,1.174Zm0,0" transform="translate(-287.706 -236.327)"/><path class="a" d="M303.562,331.842h-4.306a.587.587,0,1,1,0-1.174h4.306a.587.587,0,1,1,0,1.174Zm0,0" transform="translate(-287.706 -318.531)"/></g></svg>