<svg xmlns="http://www.w3.org/2000/svg" width="21.078" height="22.25" viewBox="0 0 21.078 22.25"><defs><style>.a{fill:#fff;}.a,.b{fill-rule:evenodd;}.b{fill:#db353a;}</style></defs><g transform="translate(-24 -621)"><g transform="translate(24 621)"><path class="a" d="M1214.306,5268.967a11.176,11.176,0,0,1-6.17,1.847H1208v-7.026c0-3.783.9-5.787,3.536-5.787,1.982,0,2.77,1.216,2.77,3.851Z" transform="translate(-1197.01 -5248.564)"/><path class="b" d="M731.125,4839a11.15,11.15,0,0,1,9.954,6.125,6.929,6.929,0,0,0-4.076-1.171c-2.905,0-4.819,1.194-6.418,3.941v-3.4h-5.4v15.043A11.131,11.131,0,0,1,731.125,4839Z" transform="translate(-720 -4839)"/></g></g></svg>