<svg xmlns="http://www.w3.org/2000/svg" width="16.251" height="16.251" viewBox="0 0 16.251 16.251">
  <path id="Path_69633" data-name="Path 69633" d="M10.017,2a8.025,8.025,0,1,0,8.033,8.025A8.021,8.021,0,0,0,10.017,2Zm6,5.746L12,7.4l-1.605-3.78A6.442,6.442,0,0,1,16.02,7.746ZM11.951,12.77l-1.926-1.156L8.107,12.77l.506-2.183L6.92,9.119l2.231-.193.875-2.063L10.9,8.918l2.231.193-1.693,1.469.514,2.191Zm-2.3-9.149L8.051,7.409l-4.029.345A6.426,6.426,0,0,1,9.656,3.621Zm-6.051,6.4A6.133,6.133,0,0,1,3.79,8.533l3.042,2.632L5.94,14.977A6.406,6.406,0,0,1,3.605,10.025ZM6.687,15.5l3.339-2.014,3.339,2.006a6.336,6.336,0,0,1-6.677.008Zm7.423-.522-.891-3.812,3.042-2.632a6.5,6.5,0,0,1,.185,1.493A6.431,6.431,0,0,1,14.11,14.977Z" transform="translate(-1.9 -1.9)" fill="#949494" stroke="#1a1f2e" stroke-width="0.2"/>
</svg>
