<svg xmlns="http://www.w3.org/2000/svg" width="32.526" height="36.728" viewBox="0 0 32.526 36.728"><defs><style>.a{fill:#949494;}</style></defs><g transform="translate(-31.504)"><path class="a" d="M119.74,260.12c0-.989-.687-1.579-1.9-1.579a4.146,4.146,0,0,0-1,.1v3.176a3.771,3.771,0,0,0,.813.063C118.942,261.875,119.74,261.221,119.74,260.12Z" transform="translate(-79.642 -241.301)"/><path class="a" d="M257.457,259.019a5.064,5.064,0,0,0-1.1.1v7.036a4.416,4.416,0,0,0,.846.049c2.2.015,3.638-1.2,3.638-3.766A3.084,3.084,0,0,0,257.457,259.019Z" transform="translate(-209.859 -241.748)"/><path class="a" d="M61.972,13.137H61.09V8.882a.621.621,0,0,0-.008-.08.707.707,0,0,0-.171-.466L53.83.246,53.824.241a.715.715,0,0,0-.143-.12C53.665.111,53.65.1,53.634.093a.742.742,0,0,0-.142-.06L53.453.021A.719.719,0,0,0,53.288,0h-17.4a1.442,1.442,0,0,0-1.44,1.44v11.7h-.882A2.059,2.059,0,0,0,31.5,15.2V25.9a2.059,2.059,0,0,0,2.059,2.058h.882v7.328a1.442,1.442,0,0,0,1.44,1.44H59.65a1.442,1.442,0,0,0,1.44-1.44V27.959h.882A2.059,2.059,0,0,0,64.03,25.9V15.2A2.059,2.059,0,0,0,61.972,13.137ZM35.885,1.441H52.568V8.81a.72.72,0,0,0,.72.72H59.65v3.608H35.885ZM53.566,20.606a5.451,5.451,0,0,1-1.788,4.356,7.715,7.715,0,0,1-4.961,1.388,21.139,21.139,0,0,1-2.761-.159V15.628a21.76,21.76,0,0,1,3.288-.223,6.923,6.923,0,0,1,4.4,1.149A4.759,4.759,0,0,1,53.566,20.606ZM34.784,26.239V15.628a19.989,19.989,0,0,1,3.287-.223,5.156,5.156,0,0,1,3.287.862,3.142,3.142,0,0,1,1.148,2.489,3.433,3.433,0,0,1-.989,2.553,4.985,4.985,0,0,1-3.495,1.133,6.089,6.089,0,0,1-.829-.048v3.845H34.784ZM59.65,34.9H35.885V27.959H59.65V34.9Zm2.087-17.419H57.6v2.457h3.862v1.979H57.6v4.324h-2.44V15.484h6.573Z" transform="translate(0)"/></g></svg>