<svg xmlns="http://www.w3.org/2000/svg" width="14.979" height="14.977" viewBox="0 0 14.979 14.977"><defs><style>.a{fill:#5c5c5c;}</style></defs><path class="a" d="M13.257.574a2.063,2.063,0,0,0-2.915,0l-.73.734L1.847,9.069l-.017.017s0,.008-.008.008-.021.025-.029.037,0,0,0,.008-.012.021-.021.033,0,.008-.008.012-.008.021-.013.033,0,0,0,.008L.021,14.408a.406.406,0,0,0,.1.42.415.415,0,0,0,.293.12.486.486,0,0,0,.132-.021L5.722,13.2s0,0,.008,0a.149.149,0,0,0,.037-.017.015.015,0,0,0,.008,0l.041-.025c.012-.008.025-.021.037-.029s.008,0,.008-.008.013-.008.017-.017l8.5-8.5a2.063,2.063,0,0,0,0-2.914ZM5.59,12.231,2.721,9.362,9.9,2.181,12.771,5.05ZM2.317,10.125l2.506,2.506L1.06,13.884Zm11.477-6.1-.437.441L10.487,1.6l.441-.441a1.237,1.237,0,0,1,1.748,0L13.8,2.276a1.241,1.241,0,0,1,0,1.748Zm0,0" transform="translate(0.001 0.029)"/></svg>