<svg xmlns="http://www.w3.org/2000/svg" width="13.916" height="18.66" viewBox="0 0 13.916 18.66"><defs><style>.a{fill:#949494;stroke:#949494;stroke-width:0.5px;}</style></defs><g transform="translate(-47.83 0.25)"><g transform="translate(48.08)"><g transform="translate(0)"><path class="a" d="M54.788,0A6.716,6.716,0,0,0,48.08,6.708a7.74,7.74,0,0,0,.569,2.583,10.818,10.818,0,0,0,.775,1.45l4.6,6.969a.875.875,0,0,0,1.529,0l4.6-6.969a10.774,10.774,0,0,0,.775-1.45A7.738,7.738,0,0,0,61.5,6.708,6.716,6.716,0,0,0,54.788,0ZM60.2,8.985a9.912,9.912,0,0,1-.707,1.322l-4.6,6.969c-.091.138-.12.138-.21,0l-4.6-6.969a9.917,9.917,0,0,1-.707-1.322,7.025,7.025,0,0,1-.507-2.276,5.919,5.919,0,0,1,11.838,0A7.031,7.031,0,0,1,60.2,8.985Z" transform="translate(-48.08 0)"/><path class="a" d="M115.631,64.008a3.551,3.551,0,1,0,3.551,3.551A3.555,3.555,0,0,0,115.631,64.008Zm0,6.314a2.762,2.762,0,1,1,2.762-2.762A2.766,2.766,0,0,1,115.631,70.322Z" transform="translate(-108.923 -60.851)"/></g></g></g></svg>