<svg xmlns="http://www.w3.org/2000/svg" width="15.588" height="16.757" viewBox="0 0 15.588 16.757">
  <path id="ic_transfer_within_a_station_24px" d="M13.293,12.412V11.048L11.353,13l1.941,1.948V13.581h4.294V12.412Zm2.354,3.312H11.353v1.169h4.294v1.364l1.941-1.948L15.647,14.36ZM7.845,4.618A1.559,1.559,0,1,0,6.287,3.059,1.563,1.563,0,0,0,7.845,4.618ZM4.923,7.268,2.779,18.257H4.416L5.78,12.022l1.676,1.559v4.676H9.015V12.373l-1.6-1.6.468-2.338a5.438,5.438,0,0,0,4.248,2.026V8.9a4,4,0,0,1-3.39-1.91L8,5.748a1.52,1.52,0,0,0-1.325-.74,1.564,1.564,0,0,0-.585.117L2,6.8v3.663H3.559V7.852l1.364-.585" transform="translate(-2 -1.5)" fill="#949494"/>
</svg>
