<svg width="24" height="24" viewBox="0 0 24 24" fill="none" xmlns="http://www.w3.org/2000/svg">
<path d="M9.89062 7.78125C9.89062 5.84283 8.31342 4.26562 6.375 4.26562C4.43658 4.26562 2.85938 5.84283 2.85938 7.78125C2.85938 9.71967 4.43658 11.3438 6.375 11.3438C8.31342 11.3438 9.89062 9.71967 9.89062 7.78125Z" fill="#1F3AD1"/>
<path d="M12.7031 18.375H12C11.6117 18.375 11.2969 18.6897 11.2969 19.0781V20.4844C11.2969 20.8727 11.6117 21.1875 12 21.1875H12.7031C13.4798 21.1875 14.1094 20.5578 14.1094 19.7812C14.1094 19.0046 13.4798 18.375 12.7031 18.375Z" fill="#1F3AD1"/>
<path d="M3.99844 24.0001L4.46255 22.5938H3.5625C2.80317 22.5938 2.08594 22.4251 1.45312 22.1016V23.2969C1.45312 23.6906 1.76245 24.0001 2.15625 24.0001H3.99844Z" fill="#1F3AD1"/>
<path d="M3.5625 21.187H4.94058C4.88316 21.3609 5.81981 18.5232 5.86875 18.375H3.5625C3.1687 18.375 2.85938 18.0656 2.85938 17.6719V14.8594C2.85938 14.4656 3.1687 14.1563 3.5625 14.1563C3.9563 14.1563 4.26562 14.4656 4.26562 14.8594V16.9683H6.33277C6.28289 17.1162 7.07048 14.7822 7.12036 14.6343C7.20473 14.3531 7.47192 14.1563 7.78125 14.1563H12.6328C12.3093 12.5531 10.8891 11.3438 9.1875 11.3438H3.5625C1.61602 11.3438 0 12.9213 0 14.8594V17.6719C0 19.6829 1.72622 21.187 3.5625 21.187Z" fill="#1F3AD1"/>
<path d="M12.9372 15.5625H8.28803L5.47534 24H10.5938C10.8963 24 11.1648 23.8065 11.2606 23.5194L11.5832 22.5516C10.6191 22.3575 9.89069 21.5048 9.89069 20.4844V19.0781C9.89069 17.915 10.8369 16.9688 12.0001 16.9688H12.7032C12.9488 16.9688 13.183 17.0105 13.4103 17.0699L13.6043 16.4879C13.7561 16.0327 13.4172 15.5625 12.9372 15.5625V15.5625Z" fill="#1F3AD1"/>
<path d="M21.8906 0H13.4062C12.2431 0 11.2969 0.946219 11.2969 2.10938V7.78125C11.2969 8.94441 12.2431 9.9375 13.4062 9.9375H14.1094V12.0469C14.1094 12.3311 14.2803 12.588 14.5433 12.6964C14.8027 12.8047 15.1069 12.7466 15.3097 12.544L17.9161 9.9375H21.8906C23.0538 9.9375 24 8.94441 24 7.78125V2.10938C24 0.946219 23.0538 0 21.8906 0V0ZM19.5284 4.76273L17.419 6.87211C17.2816 7.00945 17.1017 7.07812 16.9219 7.07812C16.742 7.07812 16.5621 7.00945 16.4248 6.87211L15.3701 5.81742C15.0954 5.54278 15.0954 5.0978 15.3701 4.82316C15.6447 4.54852 16.0897 4.54852 16.3643 4.82316L16.9219 5.38073L18.5341 3.76847C18.8088 3.49383 19.2538 3.49383 19.5284 3.76847C19.803 4.04311 19.803 4.48809 19.5284 4.76273Z" fill="#1F3AD1"/>
</svg>
