<svg xmlns="http://www.w3.org/2000/svg" width="19.022" height="19.3" viewBox="0 0 19.022 19.3">
  <g id="tour-guide" transform="translate(-3.6 0.15)">
    <path id="Path_69600" data-name="Path 69600" d="M18.4,16.669a.278.278,0,0,0-.393.026l-1.147,1.312a.661.661,0,0,1-.964.033l-.884-.884v-.585a.278.278,0,1,0-.557,0v2.15a.278.278,0,0,0,.557,0v-.778l.491.491a1.217,1.217,0,0,0,1.777-.06l1.147-1.312a.278.278,0,0,0-.026-.393ZM6.844,16.294a.278.278,0,0,0-.278.278v2.15a.278.278,0,0,0,.557,0v-2.15A.278.278,0,0,0,6.844,16.294ZM22.258,4.412,20.393,2.9a.427.427,0,0,0-.7.331v8.093l-2.8,3.2-.888-1.657a2.925,2.925,0,0,0-2.092-1.5l-1.526-.25a.472.472,0,0,1-.4-.467v-.329a3.478,3.478,0,0,0,.606-.484A3.434,3.434,0,0,0,13.61,7.39V7.269h.107A1.018,1.018,0,0,0,14.4,5.494a.9.9,0,0,0,.116-.8.883.883,0,0,0-.475-.517l-.088-.038v-2A2.138,2.138,0,0,0,11.816,0H8.495A2.138,2.138,0,0,0,6.36,2.135v2l-.088.038a.882.882,0,0,0-.36,1.318,1.018,1.018,0,0,0,.682,1.775H6.7V7.39a3.456,3.456,0,0,0,1.618,2.925V10.7a.463.463,0,0,1-.353.45l-2.311.57A2.5,2.5,0,0,0,3.75,14.155v4.567a.278.278,0,0,0,.557,0V14.155a1.944,1.944,0,0,1,1.482-1.891l1.79-.441a3.037,3.037,0,0,0,5.2-.081l1.043.171a2.365,2.365,0,0,1,1.692,1.21l.9,1.677a.541.541,0,0,0,.884.1L19.2,12.727l1.211,1.211,0,0-1.552,1.775a.278.278,0,0,0,.419.366l2.558-2.926a1.432,1.432,0,0,0-.181-2.034,1.409,1.409,0,0,0-1.409-.207V6.938l2-1.629a.577.577,0,0,0,0-.9ZM14.18,6.25a.467.467,0,0,1-.462.462H13.61V5.868a.886.886,0,0,0,.311-.033.466.466,0,0,1,.259.415ZM6.7,6.712H6.594a.462.462,0,0,1-.2-.877.89.89,0,0,0,.312.033v.844ZM6.77,5.286a.333.333,0,0,1-.427-.153A.327.327,0,0,1,6.5,4.686a9.011,9.011,0,0,1,4.874-.693.278.278,0,1,0,.075-.552,9.568,9.568,0,0,0-4.531.477V2.135A1.58,1.58,0,0,1,8.495.557h3.321a1.58,1.58,0,0,1,1.579,1.579V3.918q-.32-.115-.646-.207a.278.278,0,1,0-.151.536,9.047,9.047,0,0,1,1.215.438.328.328,0,0,1,.155.446.332.332,0,0,1-.428.154,8.6,8.6,0,0,0-6.771,0Zm.488,2.1v-1.7a7.816,7.816,0,0,1,5.8,0v1.7a2.9,2.9,0,1,1-5.8,0Zm2.9,5.306a2.475,2.475,0,0,1-2-1.018A1.041,1.041,0,0,0,8.876,10.6a3.46,3.46,0,0,0,2.56,0,1.029,1.029,0,0,0,.753,1.037A2.464,2.464,0,0,1,10.155,12.7Zm11.16-1.138a.866.866,0,0,1,.11,1.233l-.639.731-1.214-1.214.565-.645A.854.854,0,0,1,21.315,11.558Zm.592-6.681L20.254,6.22V3.5l1.654,1.344a.024.024,0,0,1,0,.032Zm-10.22,2.3a.278.278,0,0,0,.278-.278V6.288a.278.278,0,0,0-.557,0V6.9A.278.278,0,0,0,11.688,7.179ZM8.623,6.009a.278.278,0,0,0-.278.278V6.9a.278.278,0,1,0,.557,0V6.288A.278.278,0,0,0,8.623,6.009Zm2.389,2.554a.278.278,0,0,0-.378-.11.995.995,0,0,1-.958,0,.278.278,0,1,0-.268.488,1.559,1.559,0,0,0,.731.192,1.6,1.6,0,0,0,.763-.192A.278.278,0,0,0,11.012,8.563Z" transform="translate(0)" fill="#949494" stroke="#949494" stroke-width="0.3"/>
  </g>
</svg>
