<svg xmlns="http://www.w3.org/2000/svg" width="19" height="19" viewBox="0 0 19 19"><defs><style>.a{fill:#fff;}</style></defs><g transform="translate(-1.759 -1.759)"><path class="a" d="M12.045,7.142l2.029-2.029V15.845a.983.983,0,0,0,1.966,0V5.114l2.029,2.029a.983.983,0,1,0,1.39-1.39L15.752,2.046a.983.983,0,0,0-1.39,0L10.656,5.753a.983.983,0,1,0,1.39,1.39Z" transform="translate(-3.798)"/><path class="a" d="M19.776,17a.983.983,0,0,0-.983.983v7.534H3.724V17.983a.983.983,0,1,0-1.966,0v7.862A1.638,1.638,0,0,0,3.4,27.483H19.121a1.638,1.638,0,0,0,1.638-1.638V17.983A.983.983,0,0,0,19.776,17Z" transform="translate(0 -6.724)"/></g></svg>