<svg id="Layer_1" data-name="Layer 1" xmlns="http://www.w3.org/2000/svg" viewBox="0 0 510 325.05"><defs><style>.cls-1{fill:#6b8ee2;}</style></defs><g id="Group_368" data-name="Group 368"><g id="Group_367" data-name="Group 367"><path id="Path_68436" data-name="Path 68436" class="cls-1" d="M507.76,246.45C503.21,240.22,394.66,93.83,256,93.83S8.78,240.2,4.23,246.43a16.84,16.84,0,0,0,0,19.84C8.78,272.49,117.34,418.88,256,418.88s247.21-146.37,251.76-152.6A16.79,16.79,0,0,0,507.76,246.45ZM256,385.27c-102.14,0-190.58-97.15-216.77-128.92C65.38,224.55,153.65,127.46,256,127.46s190.58,97.13,216.77,128.92C446.61,288.16,358.35,385.27,256,385.27Z" transform="translate(-1 -93.83)"/></g></g><g id="Group_370" data-name="Group 370"><g id="Group_369" data-name="Group 369"><path id="Path_68437" data-name="Path 68437" class="cls-1" d="M256,155.49A100.88,100.88,0,1,0,356.88,256.37h0A101,101,0,0,0,256,155.49Zm0,168.14a67.34,67.34,0,1,1,67.33-67.34h0A67.33,67.33,0,0,1,256,323.63Z" transform="translate(-1 -93.83)"/></g></g></svg>