<svg xmlns="http://www.w3.org/2000/svg" width="14.34" height="16" viewBox="0 0 14.34 16"><defs><style>.a{fill:#949494;}</style></defs><g transform="translate(-26.57)"><g transform="translate(26.57)"><g transform="translate(0)"><path class="a" d="M114.147,200.625a.625.625,0,0,0-.625-.625h-6.438a.625.625,0,1,0,0,1.25h6.438A.625.625,0,0,0,114.147,200.625Z" transform="translate(-103.962 -193.75)"/><path class="a" d="M107.084,280a.625.625,0,0,0,0,1.25h3.91a.625.625,0,0,0,0-1.25Z" transform="translate(-103.962 -271.25)"/><path class="a" d="M31.16,14.75H29.07a1.251,1.251,0,0,1-1.25-1.25V2.5a1.251,1.251,0,0,1,1.25-1.25h7.684A1.251,1.251,0,0,1,38,2.5V6.344a.625.625,0,1,0,1.25,0V2.5a2.5,2.5,0,0,0-2.5-2.5H29.07a2.5,2.5,0,0,0-2.5,2.5v11a2.5,2.5,0,0,0,2.5,2.5h2.09a.625.625,0,0,0,0-1.25Z" transform="translate(-26.57)"/><path class="a" d="M250.47,272.573a1.877,1.877,0,0,0-2.651,0L244.388,276a.625.625,0,0,0-.157.261l-.747,2.46a.625.625,0,0,0,.765.784l2.523-.7a.625.625,0,0,0,.275-.16l3.424-3.418A1.877,1.877,0,0,0,250.47,272.573Zm-4.191,5.069-1.269.352.371-1.223,2.315-2.31.884.884Zm3.308-3.3-.121.121-.884-.884.121-.12a.625.625,0,0,1,.884.884Z" transform="translate(-236.679 -263.523)"/><path class="a" d="M113.522,120h-6.438a.625.625,0,1,0,0,1.25h6.438a.625.625,0,0,0,0-1.25Z" transform="translate(-103.962 -116.25)"/></g></g></g></svg>