<svg id="Layer_1" data-name="Layer 1" xmlns="http://www.w3.org/2000/svg" viewBox="0 0 435.68 492"><defs><style>.cls-1{fill:#fff;}</style></defs><g id="xlsx-file-format-extension"><path id="Path_68442" data-name="Path 68442" class="cls-1" d="M444.27,185H432.46V128a9.73,9.73,0,0,0,0-1.08,9.58,9.58,0,0,0-2.39-6.24L335.22,12.3h0a9.5,9.5,0,0,0-1.92-1.6l-.71-.46a10.14,10.14,0,0,0-1.92-.81l-.5-.14A9.2,9.2,0,0,0,328,9H94.85a19.32,19.32,0,0,0-19.3,19.29V185H63.75a27.56,27.56,0,0,0-27.59,27.54V356a27.58,27.58,0,0,0,27.59,27.56h11.8v98.16A19.32,19.32,0,0,0,94.85,501H413.17a19.31,19.31,0,0,0,19.29-19.29V383.53h11.81A27.6,27.6,0,0,0,471.84,356V212.53A27.56,27.56,0,0,0,444.27,185ZM94.85,28.29H318.32V127a9.56,9.56,0,0,0,9.56,9.56H413.1V185H94.85Zm195.45,263c-19-6.6-31.32-17.09-31.32-33.68,0-19.46,16.26-34.35,43.18-34.35a69.74,69.74,0,0,1,29,5.71l-5.76,20.82a54.22,54.22,0,0,0-23.9-5.42c-11.17,0-16.59,5.09-16.59,11,0,7.17,6.43,10.5,21.15,16.09,20.15,7.46,29.62,17.95,29.62,34,0,19.12-14.73,35.38-46,35.38a74.64,74.64,0,0,1-32.32-6.93l5.23-21.33a65.74,65.74,0,0,0,28.69,7.17c11.95,0,18.12-4.9,18.12-12.35s-5.35-11.12-19.08-16Zm-43.65,26.3v21.68H175.34V225.13h25.91v92.44Zm-154,21.68H63.12l33-57.71L64.3,225.13H93.91l10,20.82c3.39,6.93,5.93,12.53,8.63,19h.33c2.73-7.17,4.93-12.36,7.79-19l9.57-20.82h29.45l-32.18,55.7,33.92,58.4H131.68l-10.32-20.65c-4.23-7.94-6.94-13.87-10.16-20.49h-.34c-2.39,6.6-5.23,12.53-8.79,20.49Zm320.6,137.2H94.85v-92.9H413.17v92.94Zm.16-137.2L403,318.58c-4.23-8-6.94-13.87-10.16-20.49h-.34c-2.39,6.6-5.26,12.53-8.82,20.49l-9.56,20.65H344.78l33-57.71L346,225.13h29.62l10,20.82c3.39,6.93,5.9,12.53,8.63,19h.33c2.7-7.17,4.78-12.36,7.77-19l9.56-20.82h29.45l-32.17,55.7L443,339.26H413.34Z" transform="translate(-36.16 -9)"/></g></svg>