<?xml version="1.0" encoding="utf-8"?>
<!-- Generator: Adobe Illustrator 25.0.1, SVG Export Plug-In . SVG Version: 6.00 Build 0)  -->
<svg version="1.1" xmlns="http://www.w3.org/2000/svg" xmlns:xlink="http://www.w3.org/1999/xlink" x="0px" y="0px"
	 viewBox="0 0 1080 1080" style="enable-background:new 0 0 1080 1080;" xml:space="preserve">
<style type="text/css">
	.st0{display:none;}
	.st1{display:inline;}
	.st2{fill:#FFFFFF;}
	.st3{clip-path:url(#SVGID_2_);}
	.st4{fill:#141923;}
</style>
<g id="Layer_2" class="st0">
	
		<image style="display:inline;overflow:visible;" width="820" height="288" xlink:href="E541E425.jpg"  transform="matrix(1.3171 0 0 1.3171 0 409.9665)">
	</image>
	<g class="st1">
		<g>
			<g>
				<path class="st2" d="M-514.4,721.3l-0.9-49.9l0-0.1c0-0.1,3.1-12,16.5-12c11.9,0,16.5,11.1,16.6,11.2l0,0.2l0.8,49.8l-1,0
					l-0.8-49.7c-0.4-1-5-10.5-15.6-10.5c-12.2,0-15.3,10.3-15.5,11.1l0.9,49.8L-514.4,721.3z"/>
			</g>
		</g>
		<g>
			<g>
				<path class="st2" d="M-504.5,722l-1,0l0.1-17c0-0.1,1.1-6.8,7.2-6.8c6.3,0,7.5,6.7,7.5,6.7l0.1,16.9l-1,0l-0.1-16.8
					c0-0.2-1-5.8-6.5-5.8c-5.2,0-6.2,5.7-6.2,5.9L-504.5,722z"/>
			</g>
		</g>
		<g>
			<g>
				<polygon class="st2" points="-650.6,693.8 -712.5,693.4 -747.1,690.3 -814.5,684.4 -894.5,685.9 -894.5,684.9 -814.4,683.4 
					-747,689.3 -712.4,692.4 -650.6,692.8 -522.4,690.1 -523,652.2 -475.1,652.2 -473.7,691.4 -347.8,691.4 -283.1,690.1 
					-254.2,687.5 -183.1,679.2 -103.7,679.2 -103.7,680.2 -183.1,680.2 -254,688.5 -283.1,691.1 -347.8,692.4 -474.7,692.4 
					-476.1,653.2 -522,653.2 -521.4,691.1 -521.9,691.1 				"/>
			</g>
		</g>
		<g>
			<g>
				<polygon class="st2" points="-711.1,705.6 -899,705.6 -899,704.6 -711.1,704.6 -514.2,703 -514.2,704 				"/>
			</g>
		</g>
		<g>
			<g>
				<polygon class="st2" points="-482.5,704.8 -482.5,703.8 -282.4,703.2 -181.6,697.6 -98.9,697.6 -98.9,698.6 -181.5,698.6 
					-282.4,704.2 				"/>
			</g>
		</g>
		<g>
			<g>
				<polygon class="st2" points="-815.6,743.4 -816.7,617.8 -808.3,609.4 -896.4,609.4 -896.4,608.4 -805.9,608.4 -815.7,618.3 
					-814.6,743.4 				"/>
			</g>
		</g>
		<g>
			<g>
				<path class="st2" d="M-714.2,639.7L-714.2,639.7l-40.1-14.8l-61.1-22.8h-76.2v-9l79.8,0.9l98.8,38.5l429-1.8l101-42.8l0.1,0
					l73.4-0.9v10.3l-0.5,0l-77.6,0.8l-97,38.2l-0.1,0L-714.2,639.7z M-890.6,601.1h75.4l0.1,0l61.2,22.8l39.9,14.7l429.3-3.3
					l97-38.2l77.2-0.8v-8.3l-72.3,0.9l-101.1,42.8h-0.1l-429.2,1.8l-0.1,0L-812,595l-78.5-0.9V601.1z"/>
			</g>
		</g>
		<g>
			<g>
				<line class="st2" x1="-891.1" y1="601.6" x2="-896" y2="608.9"/>
			</g>
		</g>
		<g>
			<g>
				<polygon class="st2" points="-180.2,739.1 -182.7,612.6 -189.9,604 -285,639.7 -285.1,639.7 -712.9,644 -713,643.9 
					-806.7,609.9 -806.4,609 -712.8,643 -285.2,638.7 -189.6,602.8 -181.7,612.3 -181.7,612.5 -179.2,739.1 				"/>
			</g>
		</g>
		<g>
			<g>
				<rect x="-189.7" y="602.9" class="st2" width="88.8" height="1"/>
			</g>
		</g>
		<g>
			<g>
				<path class="st2" d="M-830.7,678.3h-8.2v-59.6h8.2V678.3z M-837.9,677.3h6.2v-57.6h-6.2V677.3z"/>
			</g>
		</g>
		<g>
			<g>
				<path class="st2" d="M-818.9,678.3h-8.2v-59.6h8.2V678.3z M-826.2,677.3h6.2v-57.6h-6.2V677.3z"/>
			</g>
		</g>
		<g>
			<g>
				<path class="st2" d="M-842.1,678.3h-21v-59.6h21V678.3z M-862,677.3h19v-57.6h-19V677.3z"/>
			</g>
		</g>
		<g>
			<g>
				<path class="st2" d="M-867.2,678.3h-8.2v-59.6h8.2V678.3z M-874.4,677.3h6.2v-57.6h-6.2V677.3z"/>
			</g>
		</g>
		<g>
			<g>
				<path class="st2" d="M-878.2,678.3h-8.2v-59.6h8.2V678.3z M-885.5,677.3h6.2v-57.6h-6.2V677.3z"/>
			</g>
		</g>
		<g>
			<g>
				<path class="st2" d="M-889.4,678.3h-8.2v-59.6h8.2V678.3z M-896.6,677.3h6.2v-57.6h-6.2V677.3z"/>
			</g>
		</g>
		<g>
			<g>
				<g>
					<polygon class="st2" points="-815.9,593.9 -816.9,593.9 -816.9,588.1 -856.5,588.1 -856.5,593.4 -857.5,593.4 -857.5,587.1 
						-815.9,587.1 					"/>
				</g>
			</g>
			<g>
				<g>
					<polygon class="st2" points="-823.1,587.6 -824.1,587.6 -824.1,574.3 -848.9,574.3 -848.9,587.6 -849.9,587.6 -849.9,573.3 
						-823.1,573.3 					"/>
				</g>
			</g>
			<g>
				<g>
					<path class="st2" d="M-818.6,576h-38.2v-7.1h9.5c-0.1-8.3,5.3-11.2,6.8-11.8l0.1-11.9h6.8l0.1,2.8l0,8.6
						c8.1,0.9,8.9,10.1,9,12.3h6V576z M-855.8,575h36.2v-5.1h-6l0-0.5c0-0.5,0.1-11.3-8.5-11.9l-0.5,0V548l-0.1-1.8h-4.9l-0.1,11.6
						l-0.3,0.1c-0.3,0.1-6.7,2.3-6.4,11.5l0,0.5h-9.5V575z"/>
				</g>
			</g>
		</g>
		<g>
			<g>
				<path class="st2" d="M-744.4,735.3h-8.1l-1.8-105.3v-21.7h8.5l0,0.5L-744.4,735.3z M-751.6,734.3h6.1l-1.4-124.9h-6.5V630
					L-751.6,734.3z"/>
			</g>
		</g>
		<g>
			<g>
				<g>
					<path class="st2" d="M-650.8,721.8h-11.1l0-0.5l-1.7-78.8h11.8l-0.1,3L-650.8,721.8z M-660.9,720.8h9.1l-1.1-75.3l0.1-2h-9.8
						L-660.9,720.8z"/>
				</g>
			</g>
			<g>
				<g>
					<path class="st2" d="M-667,643.5v-12.3h19.3v12.1L-667,643.5z M-666,632.2v10.3l17.3-0.1v-10.2H-666z"/>
				</g>
			</g>
			<g>
				<g>
					<path class="st2" d="M-641,633.3l-33.2-0.5v-4.2l14.2-5.5l6,0l12.2,4.1L-641,633.3z M-673.1,631.8l31,0.5l-0.6-4.2l-11.5-3.9
						h-5.6l-13.3,5.2V631.8z"/>
				</g>
			</g>
			<g>
				<g>
					<path class="st2" d="M-653.6,624.1h-6.8l-0.7-23.3v-2.9h7.5V624.1z M-659.5,623.1h4.8v-24.2h-5.5v1.9L-659.5,623.1z"/>
				</g>
			</g>
		</g>
		<g>
			<g>
				<path class="st2" d="M-689.4,660.6h-10v-8.1h10V660.6z M-698.4,659.6h8v-6.1h-8V659.6z"/>
			</g>
		</g>
		<g>
			<g>
				<path class="st2" d="M-662.2,662.4h-8.4v-10.2h8.4V662.4z M-669.6,661.4h6.4v-8.2h-6.4V661.4z"/>
			</g>
		</g>
		<g>
			<g>
				<path class="st2" d="M-689.4,689.6h-7.9v-18.3h7.9V689.6z M-696.3,688.6h5.9v-16.3h-5.9V688.6z"/>
			</g>
		</g>
		<g>
			<g>
				<path class="st2" d="M-662.6,690.3h-7.4v-18.9h7.4V690.3z M-669,689.3h5.4v-16.9h-5.4V689.3z"/>
			</g>
		</g>
		<g>
			<g>
				<path class="st2" d="M-633,689.6h-8.5v-17.1h8.5V689.6z M-640.5,688.6h6.5v-15.1h-6.5V688.6z"/>
			</g>
		</g>
		<g>
			<g>
				<path class="st2" d="M-632.4,661.1h-9.7v-8.6h9.7V661.1z M-641.1,660.1h7.7v-6.6h-7.7V660.1z"/>
			</g>
		</g>
		<g>
			<g>
				<path class="st2" d="M-606.6,661.4h-9.2v-9.2h9.2V661.4z M-614.8,660.4h7.2v-7.2h-7.2V660.4z"/>
			</g>
		</g>
		<g>
			<g>
				<path class="st2" d="M-606,688.6h-9.1v-16.1h9.1V688.6z M-614.1,687.6h7.1v-14.1h-7.1V687.6z"/>
			</g>
		</g>
		<g>
			<g>
				<path class="st2" d="M-577.7,688.6h-9.1v-16.1h9.1V688.6z M-585.8,687.6h7.1v-14.1h-7.1V687.6z"/>
			</g>
		</g>
		<g>
			<g>
				<path class="st2" d="M-577.2,661.4h-9.6v-9.6h9.6V661.4z M-585.8,660.4h7.6v-7.6h-7.6V660.4z"/>
			</g>
		</g>
		<g>
			<g>
				<path class="st2" d="M-540.7,660.6h-8.2v-9.6h8.2V660.6z M-547.9,659.6h6.2v-7.6h-6.2V659.6z"/>
			</g>
		</g>
		<g>
			<g>
				<path class="st2" d="M-540.7,687.6h-7.4v-16.8h7.4V687.6z M-547.1,686.6h5.4v-14.8h-5.4V686.6z"/>
			</g>
		</g>
		<g>
			<g>
				<path class="st2" d="M-445.8,660.4H-456v-10.1h10.1V660.4z M-455,659.4h8.1v-8.1h-8.1V659.4z"/>
			</g>
		</g>
		<g>
			<g>
				<path class="st2" d="M-447.3,687.6h-7.4v-15.8h7.4V687.6z M-453.7,686.6h5.4v-13.8h-5.4V686.6z"/>
			</g>
		</g>
		<g>
			<g>
				<path class="st2" d="M-412.2,687.6h-7.8v-16.8h7.8V687.6z M-419,686.6h5.8v-14.8h-5.8V686.6z"/>
			</g>
		</g>
		<g>
			<g>
				<path class="st2" d="M-382.8,686.3h-7.2v-17h7.2V686.3z M-389.1,685.3h5.2v-15h-5.2V685.3z"/>
			</g>
		</g>
		<g>
			<g>
				<path class="st2" d="M-355.7,686.3h-7.6v-17h7.6V686.3z M-362.3,685.3h5.6v-15h-5.6V685.3z"/>
			</g>
		</g>
		<g>
			<g>
				<path class="st2" d="M-354.1,658.7h-9.9v-9.9h9.9V658.7z M-363,657.7h7.9v-7.9h-7.9V657.7z"/>
			</g>
		</g>
		<g>
			<g>
				<path class="st2" d="M-380.8,659.5h-10.7v-10.7h10.7V659.5z M-390.5,658.5h8.7v-8.7h-8.7V658.5z"/>
			</g>
		</g>
		<g>
			<g>
				<path class="st2" d="M-410.7,660.4h-9.3v-9.3h9.3V660.4z M-419,659.4h7.3v-7.3h-7.3V659.4z"/>
			</g>
		</g>
		<g>
			<g>
				<path class="st2" d="M-326,659.2h-9v-9h9V659.2z M-334,658.2h7v-7h-7V658.2z"/>
			</g>
		</g>
		<g>
			<g>
				<path class="st2" d="M-327.4,686.3h-7.7v-16.5h7.7V686.3z M-334,685.3h5.7v-14.5h-5.7V685.3z"/>
			</g>
		</g>
		<g>
			<g>
				<path class="st2" d="M-299.6,658.7h-9.2v-9.2h9.2V658.7z M-307.8,657.7h7.2v-7.2h-7.2V657.7z"/>
			</g>
		</g>
		<g>
			<g>
				<path class="st2" d="M-300.5,686.3h-7.2v-16.5h7.2V686.3z M-306.7,685.3h5.2v-14.5h-5.2V685.3z"/>
			</g>
		</g>
		<g>
			<g>
				<path class="st2" d="M-687.4,721.8h-8.8v-17.3h8.8V721.8z M-695.1,720.8h6.8v-15.3h-6.8V720.8z"/>
			</g>
		</g>
		<g>
			<g>
				<path class="st2" d="M-662.2,721h-7.8v-16.5h7.8V721z M-669,720h5.8v-14.5h-5.8V720z"/>
			</g>
		</g>
		<g>
			<g>
				<path class="st2" d="M-633,719.7h-7.9V704h7.9V719.7z M-639.9,718.7h5.9V705h-5.9V718.7z"/>
			</g>
		</g>
		<g>
			<g>
				<path class="st2" d="M-606,719.7h-8.6V704h8.6V719.7z M-613.6,718.7h6.6V705h-6.6V718.7z"/>
			</g>
		</g>
		<g>
			<g>
				<path class="st2" d="M-578.6,719.7h-8.9v-16.2h8.9V719.7z M-586.5,718.7h6.9v-14.2h-6.9V718.7z"/>
			</g>
		</g>
		<g>
			<g>
				<path class="st2" d="M-540.7,719.7h-8.2v-16.5h8.2V719.7z M-547.9,718.7h6.2v-14.5h-6.2V718.7z"/>
			</g>
		</g>
		<g>
			<g>
				<path class="st2" d="M-447.3,718.9h-7.4v-15.7h7.4V718.9z M-453.7,717.9h5.4v-13.7h-5.4V717.9z"/>
			</g>
		</g>
		<g>
			<g>
				<path class="st2" d="M-409.4,718.9h-9.2v-15.7h9.2V718.9z M-417.6,717.9h7.2v-13.7h-7.2V717.9z"/>
			</g>
		</g>
		<g>
			<g>
				<path class="st2" d="M-378.9,718.9h-7.7v-15.7h7.7V718.9z M-385.6,717.9h5.7v-13.7h-5.7V717.9z"/>
			</g>
		</g>
		<g>
			<g>
				<path class="st2" d="M-355.7,719.9h-7v-16.1h7V719.9z M-361.7,718.9h5v-14.1h-5V718.9z"/>
			</g>
		</g>
		<g>
			<g>
				<path class="st2" d="M-325.3,719.9h-8.7v-16.6h8.7V719.9z M-333,718.9h6.7v-14.6h-6.7V718.9z"/>
			</g>
		</g>
		<g>
			<g>
				<path class="st2" d="M-298.8,718.9h-7.8v-15.7h7.8V718.9z M-305.5,717.9h5.8v-13.7h-5.8V717.9z"/>
			</g>
		</g>
		<g>
			<g>
				<path class="st2" d="M-472.2,632.8h-51.1v-25.4l51.1-0.5V632.8z M-522.4,631.8h49.1v-23.9l-49.1,0.5V631.8z"/>
			</g>
		</g>
		<g>
			<g>
				<path class="st2" d="M-522.4,632.8l-23.9-0.6v-20.5l23.9-5.3V632.8z M-545.3,631.2l21.9,0.6v-24.2l-21.9,4.9V631.2z"/>
			</g>
		</g>
		<g>
			<g>
				<path class="st2" d="M-473.2,632.8v-26l22.3,3.9l0.7,21.9L-473.2,632.8z M-472.2,607.9v23.8l21-0.3v-0.3l-0.7-19.8L-472.2,607.9
					z"/>
			</g>
		</g>
		<g>
			<g>
				<g>
					<path class="st2" d="M-547.9,606.9h-20.7v-8.5l6.7-5l0.7-8.2l6.5,0.6v7.4l6.8,5.8V606.9z M-567.6,605.9h18.7v-6.5l-6.8-5.8
						v-6.9l-4.6-0.4l-0.7,7.7l-6.6,5V605.9z"/>
				</g>
			</g>
			<g>
				<g>
					<path class="st2" d="M-571.7,633v-8.8l-0.1-3.5h26l0.5,12.1L-571.7,633z M-570.8,621.6l0,2.5v7.8l24.4-0.2l-0.5-10.2H-570.8z"
						/>
				</g>
			</g>
			<g>
				<g>
					<path class="st2" d="M-544.3,609.2h-29.3v-3.3h29.3V609.2z M-572.6,608.2h27.3v-1.3h-27.3V608.2z"/>
				</g>
			</g>
			<g>
				<g>
					<path class="st2" d="M-546.4,621.6h-23.5v-13.4h23.5V621.6z M-568.9,620.6h21.5v-11.4h-21.5V620.6z"/>
				</g>
			</g>
		</g>
		<g>
			<g>
				<g>
					<path class="st2" d="M-428.6,606.5h-20.7V598l6.7-5l0.7-8.2l6.5,0.6v7.4l6.8,5.8V606.5z M-448.3,605.5h18.7V599l-6.8-5.8v-6.9
						l-4.6-0.4l-0.7,7.7l-6.6,5V605.5z"/>
				</g>
			</g>
			<g>
				<g>
					<path class="st2" d="M-452.4,632.6v-8.8l-0.1-3.5h26l0.6,12.1L-452.4,632.6z M-451.4,621.2l0,2.5v7.8l24.4-0.2l-0.5-10.2
						H-451.4z"/>
				</g>
			</g>
			<g>
				<g>
					<path class="st2" d="M-425,608.8h-29.3v-3.3h29.3V608.8z M-453.3,607.8h27.3v-1.3h-27.3V607.8z"/>
				</g>
			</g>
			<g>
				<g>
					<path class="st2" d="M-427.1,621.2h-23.5v-13.4h23.5V621.2z M-449.5,620.2h21.5v-11.4h-21.5V620.2z"/>
				</g>
			</g>
		</g>
		<g>
			<g>
				<path class="st2" d="M-542.7,607l0.8-33.1l19.1-5.6l46.3-0.8l0.1,0l22.8,7.2l0.4,32l-23.8-4.8l-34.9-0.7L-542.7,607z
					 M-541,574.6l-0.7,31.2l29.6-5.7l0.1,0l35,0.7l22.7,4.6l-0.4-30l-22-7l-46.1,0.8L-541,574.6z"/>
			</g>
		</g>
		<g>
			<g>
				<polygon class="st2" points="-541,574.3 -542,574.2 -541.6,559.3 -514,554.7 -484.5,554.7 -457.3,560.6 -456.5,573.2 
					-456.5,574.1 -457.5,574.1 -457.5,573.3 -458.2,561.4 -484.7,555.7 -513.9,555.7 -540.7,560.1 				"/>
			</g>
		</g>
		<g>
			<g>
				<path class="st2" d="M-465,559.6c-0.5-26.3-25.5-32.9-26.8-33.2h-14.3c-0.2,0-24.3,3.2-26.7,32.1l-1-0.1
					c2.4-29.8,27.4-33,27.6-33l14.5,0l0.1,0c0.3,0.1,27.1,6.5,27.6,34.2L-465,559.6z"/>
			</g>
		</g>
		<g>
			<g>
				<path class="st2" d="M-491.6,525.5h-14.6v-12h14.6V525.5z M-505.3,524.5h12.6v-10h-12.6V524.5z"/>
			</g>
		</g>
		<g>
			<g>
				<path class="st2" d="M-486.4,514.5h-24.1v-3.4l8.7-8.1l-0.2-16.9h6.2l0.7,16.8l8.3,6.6L-486.4,514.5z M-509.5,513.5h22l-0.2-3.3
					l-8.3-6.7l-0.7-16.3h-4.2l0.2,16.3l-8.7,8.1V513.5z"/>
			</g>
		</g>
		<g>
			<g>
				<path class="st2" d="M-513.9,568.3c0,0,0-4.1,0.3-13.9c-1.3-21.6,4.8-28.2,5.1-28.5l0.7,0.7c-0.1,0.1-6.1,6.7-4.8,27.8
					c-0.3,9.8-0.3,13.9-0.3,13.9L-513.9,568.3z"/>
			</g>
		</g>
		<g>
			<g>
				<path class="st2" d="M-483.2,568.3h-1c0-0.1,0-7.3-0.4-13c0.4-15.6-9.2-29.9-9.3-30l0.8-0.6c0.1,0.1,9.9,14.7,9.4,30.6
					C-483.2,560.9-483.2,568.2-483.2,568.3z"/>
			</g>
		</g>
		<g>
			<g>
				<polygon class="st2" points="-465.8,551 -485,546.7 -513.2,546.7 -531.9,551 -532.1,550 -513.3,545.7 -484.9,545.7 -465.6,550 
									"/>
			</g>
		</g>
		<g>
			<g>
				
					<rect x="-552.2" y="588.4" transform="matrix(1.367060e-02 -0.9999 0.9999 1.367060e-02 -1117.3269 45.0252)" class="st2" width="32.7" height="1"/>
			</g>
		</g>
		<g>
			<g>
				
					<rect x="-463.4" y="572.5" transform="matrix(0.9996 -2.690289e-02 2.690289e-02 0.9996 -15.9858 -12.241)" class="st2" width="1" height="30.9"/>
			</g>
		</g>
		<g>
			<g>
				<path class="st2" d="M-477.3,601.7h-6.9l1.2-26.5h-5.6v-7.4l12.1-0.4l1.7,0.5l-0.4,7.3h-2V601.7z M-483.2,600.7h4.9v-26.5h2
					l0.3-5.5l-0.7-0.2l-11,0.4v5.4h5.6L-483.2,600.7z"/>
			</g>
		</g>
		<g>
			<g>
				<path class="st2" d="M-518.7,602.4l-0.6-25.5h-4.5l-0.7-8.1l1.5-0.5l12.6,0.3l0.9,8.3h-3.4l1.4,24.1L-518.7,602.4z
					 M-522.9,575.8h4.5l0.6,25.3l5.1-1l-1.4-24.3h3.4l-0.7-6.3l-11.5-0.3l-0.6,0.2L-522.9,575.8z"/>
			</g>
		</g>
		<g>
			<g>
				<path class="st2" d="M-504.2,601.2l-1,0l0.1-16.7c0-0.1,0.9-6.7,5.9-6.7c5.3,0,6.2,6.6,6.2,6.6l0.1,16.5l-1,0l-0.1-16.4
					c0-0.2-0.8-5.7-5.2-5.7c-4.2,0-4.9,5.7-5,5.8L-504.2,601.2z"/>
			</g>
		</g>
		<g>
			<g>
				<path class="st2" d="M-530.9,604h-1v-17.8c0,0-0.1-2,1.2-3.4c0.9-0.9,2.1-1.4,3.7-1.4c1.3,0,2.4,0.4,3.2,1.2
					c1.4,1.5,1.3,3.6,1.3,3.7l0.1,15.9l-1,0l-0.1-16c0,0,0.1-1.9-1-3c-0.6-0.6-1.4-0.9-2.5-0.9c-1.3,0-2.3,0.4-2.9,1.1
					c-1,1.1-0.9,2.6-0.9,2.7L-530.9,604z"/>
			</g>
		</g>
		<g>
			<g>
				<path class="st2" d="M-466.2,603.4l-0.1-17.7l0,0c0,0-0.7-4.7-4-4.7c-3.2,0-3.8,4.1-3.8,4.1l0,16.6l-1,0l0-16.7
					c0.2-1.8,1.6-5.1,4.8-5.1c3.4,0,4.8,3.7,5,5.7l0.1,17.8L-466.2,603.4z"/>
			</g>
		</g>
		<g>
			<g>
				
					<rect x="-544.6" y="606.4" transform="matrix(0.9549 -0.2968 0.2968 0.9549 -204.6127 -133.8307)" class="st2" width="3.2" height="1"/>
			</g>
		</g>
		<g>
			<g>
				<path class="st2" d="M-493,624.6h-12.1v-7.8h12.1V624.6z M-504.2,623.6h10.1v-5.8h-10.1V623.6z"/>
			</g>
		</g>
		<g>
			<g>
				<path class="st2" d="M-458.9,631.6h-6.6v-14.8h6.6V631.6z M-464.5,630.6h4.6v-12.8h-4.6V630.6z"/>
			</g>
		</g>
		<g>
			<g>
				<path class="st2" d="M-530.4,631.6h-7.1v-14.8h7.1V631.6z M-536.5,630.6h5.1v-12.8h-5.1V630.6z"/>
			</g>
		</g>
		<g>
			<g>
				<g>
					<polygon class="st2" points="-141.3,587.6 -142.3,587.6 -142.3,581.8 -181.8,581.8 -181.8,587.1 -182.8,587.1 -182.8,580.8 
						-141.3,580.8 					"/>
				</g>
			</g>
			<g>
				<g>
					<polygon class="st2" points="-148.5,581.3 -149.5,581.3 -149.5,568.1 -174.2,568.1 -174.2,581.3 -175.2,581.3 -175.2,567.1 
						-148.5,567.1 					"/>
				</g>
			</g>
			<g>
				<g>
					<path class="st2" d="M-143.9,569.7h-38.2v-7.1h9.5c-0.1-8.3,5.3-11.2,6.8-11.8l0.1-11.9h6.8l0.1,2.8v8.6
						c8.1,0.9,8.9,10.1,9,12.3h6V569.7z M-181.2,568.7h36.2v-5.1h-6l0-0.5c0-0.5,0.1-11.3-8.5-11.9l-0.5,0v-9.5l-0.1-1.8h-4.9
						l-0.1,11.6l-0.3,0.1c-0.3,0.1-6.7,2.3-6.4,11.5l0,0.5h-9.5V568.7z"/>
				</g>
			</g>
		</g>
		<g>
			<g>
				<g>
					<path class="st2" d="M-117.3,672.7h-8.8v-59.6h8.8V672.7z M-125.1,671.7h6.8v-57.6h-6.8V671.7z"/>
				</g>
			</g>
			<g>
				<g>
					<path class="st2" d="M-129.5,672.7H-152v-59.6h22.5V672.7z M-151,671.7h20.5v-57.6H-151V671.7z"/>
				</g>
			</g>
			<g>
				<g>
					<path class="st2" d="M-156.5,672.7h-8.8v-59.6h8.8V672.7z M-164.4,671.7h6.8v-57.6h-6.8V671.7z"/>
				</g>
			</g>
			<g>
				<g>
					<path class="st2" d="M-168.5,672.7h-8.8v-59.6h8.8V672.7z M-176.3,671.7h6.8v-57.6h-6.8V671.7z"/>
				</g>
			</g>
			<g>
				<g>
					<path class="st2" d="M-105,672.7h-8.8v-59.6h8.8V672.7z M-112.8,671.7h6.8v-57.6h-6.8V671.7z"/>
				</g>
			</g>
		</g>
		<g>
			<g>
				<path class="st2" d="M-862.8,731.1l-1,0l0.1-26.2c0-0.2,1.7-10.2,10.8-10.2c9.5,0,11.3,10.1,11.3,10.2l0.2,25.9l-1,0l-0.2-25.8
					c-0.1-0.3-1.6-9.2-10.3-9.2c-8.3,0-9.8,8.9-9.8,9.3L-862.8,731.1z"/>
			</g>
		</g>
		<g>
			<g>
				<path class="st2" d="M-154.6,724.5l-1,0l0.1-26.2c0-0.2,1.7-10.2,10.8-10.2c9.5,0,11.3,10.1,11.3,10.2l0.2,25.9l-1,0l-0.2-25.8
					c-0.1-0.3-1.6-9.2-10.3-9.2c-8.3,0-9.8,8.9-9.8,9.3L-154.6,724.5z"/>
			</g>
		</g>
		<g>
			<g>
				<path class="st2" d="M-203.9,721.5l-1,0l0.1-22.9c0-0.4,0.9-9,6-9c5.3,0,6.3,8.6,6.3,9l0.1,22.6l-1,0l-0.1-22.6c0,0-0.9-8-5.3-8
					c-4.2,0-5,8-5,8.1L-203.9,721.5z"/>
			</g>
		</g>
		<g>
			<g>
				<path class="st2" d="M-802,723.1l-1,0l0.1-22.9c0-0.4,0.9-9,6-9c5.3,0,6.3,8.6,6.3,9l0.1,22.6l-1,0l-0.1-22.6c0,0-0.9-8-5.3-8
					c-4.2,0-5,8-5,8.1L-802,723.1z"/>
			</g>
		</g>
		<g>
			<g>
				
					<rect x="-283.4" y="631.3" transform="matrix(0.9998 -2.055181e-02 2.055181e-02 0.9998 -14.0138 -5.6705)" class="st2" width="1" height="95.4"/>
			</g>
		</g>
		<g>
			<g>
				<path class="st2" d="M-808,676.6h-6.5v-56h6.5V676.6z M-813.4,675.6h4.5v-54h-4.5V675.6z"/>
			</g>
		</g>
		<g>
			<g>
				<path class="st2" d="M-796.3,676.6h-6.7v-53h6.7V676.6z M-802,675.6h4.7v-51h-4.7V675.6z"/>
			</g>
		</g>
		<g>
			<g>
				<path class="st2" d="M-784.9,678.3h-9.1v-52h9.1V678.3z M-793,677.3h7.1v-50h-7.1V677.3z"/>
			</g>
		</g>
		<g>
			<g>
				<path class="st2" d="M-773.5,646.7h-6v-12.2h6V646.7z M-778.5,645.7h4v-10.2h-4V645.7z"/>
			</g>
		</g>
		<g>
			<g>
				<path class="st2" d="M-761.2,647.9h-5.5v-12.2h5.5V647.9z M-765.7,646.9h3.5v-10.2h-3.5V646.9z"/>
			</g>
		</g>
		<g>
			<g>
				<path class="st2" d="M-772.6,679.7h-6v-18.3h6V679.7z M-777.6,678.7h4v-16.3h-4V678.7z"/>
			</g>
		</g>
		<g>
			<g>
				<path class="st2" d="M-758.8,681h-5.6v-18h5.6V681z M-763.4,680h3.6v-16h-3.6V680z"/>
			</g>
		</g>
		<g>
			<g>
				<path class="st2" d="M-734.8,653.5h-5.8v-9.2h5.8V653.5z M-739.5,652.5h3.8v-7.2h-3.8V652.5z"/>
			</g>
		</g>
		<g>
			<g>
				<path class="st2" d="M-725.3,655.3h-6v-9.6h6V655.3z M-730.3,654.3h4v-7.6h-4V654.3z"/>
			</g>
		</g>
		<g>
			<g>
				<path class="st2" d="M-717.2,659.1h-4.8V650h4.8V659.1z M-721,658.1h2.8V651h-2.8V658.1z"/>
			</g>
		</g>
		<g>
			<g>
				<path class="st2" d="M-734.8,685.9h-5.8v-19.3h5.8V685.9z M-739.5,684.9h3.8v-17.3h-3.8V684.9z"/>
			</g>
		</g>
		<g>
			<g>
				<path class="st2" d="M-725.3,686.6h-6v-19.1h6V686.6z M-730.3,685.6h4v-17.1h-4V685.6z"/>
			</g>
		</g>
		<g>
			<g>
				<path class="st2" d="M-715.8,687.6h-6.2v-20h6.2V687.6z M-721,686.6h4.2v-18h-4.2V686.6z"/>
			</g>
		</g>
		<g>
			<g>
				<path class="st2" d="M-771.2,723.3h-5.9v-18.8h5.9V723.3z M-776,722.3h3.9v-16.8h-3.9V722.3z"/>
			</g>
		</g>
		<g>
			<g>
				<path class="st2" d="M-758.8,723.6h-5.6v-19h5.6V723.6z M-763.4,722.6h3.6v-17h-3.6V722.6z"/>
			</g>
		</g>
		<g>
			<g>
				<path class="st2" d="M-736,723.3h-3.1v-18.7h3.1V723.3z M-738.2,722.3h1.1v-16.7h-1.1V722.3z"/>
			</g>
		</g>
		<g>
			<g>
				<path class="st2" d="M-726.1,723.6h-3.7v-19h3.7V723.6z M-728.7,722.6h1.7v-17h-1.7V722.6z"/>
			</g>
		</g>
		<g>
			<g>
				<path class="st2" d="M-717.2,724.5h-3.6v-19.9h3.6V724.5z M-719.8,723.5h1.6v-17.9h-1.6V723.5z"/>
			</g>
		</g>
		<g>
			<g>
				
					<rect x="-713.1" y="633.1" transform="matrix(1 -9.057869e-03 9.057869e-03 1 -6.2091 -6.4264)" class="st2" width="1" height="98.4"/>
			</g>
		</g>
		<g>
			<g>
				<path class="st2" d="M-183.9,673.9h-6.5v-56h6.5V673.9z M-189.3,672.9h4.5v-54h-4.5V672.9z"/>
			</g>
		</g>
		<g>
			<g>
				<path class="st2" d="M-195.3,673.9h-6.7v-53h6.7V673.9z M-201.1,672.9h4.7v-51h-4.7V672.9z"/>
			</g>
		</g>
		<g>
			<g>
				<path class="st2" d="M-204.3,675.6h-9.1v-52h9.1V675.6z M-212.4,674.6h7.1v-50h-7.1V674.6z"/>
			</g>
		</g>
		<g>
			<g>
				<path class="st2" d="M-229.5,646.8l-0.6-14.7l6.7-0.3l0.6,14.7L-229.5,646.8z M-229.1,633.1l0.5,12.7l4.7-0.2l-0.5-12.7
					L-229.1,633.1z"/>
			</g>
		</g>
		<g>
			<g>
				<path class="st2" d="M-240.9,650.1l-0.5-12.2l5.5-0.2l0.5,12.2L-240.9,650.1z M-240.4,638.9l0.4,10.2l3.5-0.1l-0.4-10.2
					L-240.4,638.9z"/>
			</g>
		</g>
		<g>
			<g>
				<path class="st2" d="M-230.1,675.9l-0.8-18.3l6-0.3l0.8,18.3L-230.1,675.9z M-229.8,658.6l0.7,16.3l4-0.2l-0.7-16.3
					L-229.8,658.6z"/>
			</g>
		</g>
		<g>
			<g>
				<path class="st2" d="M-239.8,677.6l-0.8-17.9l5.6-0.2l0.8,17.9L-239.8,677.6z M-239.5,660.7l0.7,15.9l3.6-0.2l-0.7-15.9
					L-239.5,660.7z"/>
			</g>
		</g>
		<g>
			<g>
				<path class="st2" d="M-255.4,654.8l-0.4-9.2l5.7-0.2l0.4,9.2L-255.4,654.8z M-254.8,646.6l0.3,7.2l3.7-0.2l-0.3-7.2
					L-254.8,646.6z"/>
			</g>
		</g>
		<g>
			<g>
				<path class="st2" d="M-266.3,655.2l-0.4-9.5l6-0.3l0.4,9.5L-266.3,655.2z M-265.7,646.6l0.3,7.5l4-0.2l-0.3-7.5L-265.7,646.6z"
					/>
			</g>
		</g>
		<g>
			<g>
				<path class="st2" d="M-276.8,654.6l-0.4-9.1l4.8-0.2l0.4,9.1L-276.8,654.6z M-276.1,646.5l0.3,7.1l2.8-0.1l-0.3-7.1
					L-276.1,646.5z"/>
			</g>
		</g>
		<g>
			<g>
				<path class="st2" d="M-254.3,680.3l-0.8-19.3l5.7-0.2l0.8,19.3L-254.3,680.3z M-254.1,662l0.7,17.3l3.7-0.2l-0.7-17.3
					L-254.1,662z"/>
			</g>
		</g>
		<g>
			<g>
				<path class="st2" d="M-265.7,680.5l-0.8-19l6-0.3l0.8,19L-265.7,680.5z M-265.4,662.5l0.7,17l4-0.2l-0.7-17L-265.4,662.5z"/>
			</g>
		</g>
		<g>
			<g>
				<path class="st2" d="M-276.5,681.5l-0.8-20l6.2-0.3l0.8,20L-276.5,681.5z M-276.3,662.4l0.8,18l4.2-0.2l-0.8-18L-276.3,662.4z"
					/>
			</g>
		</g>
		<g>
			<g>
				<path class="st2" d="M-219.3,718.9h-5.9v-18.8h5.9V718.9z M-224.1,717.9h3.9v-16.8h-3.9V717.9z"/>
			</g>
		</g>
		<g>
			<g>
				<path class="st2" d="M-231.9,719.8h-5.6v-19h5.6V719.8z M-236.5,718.8h3.6v-17h-3.6V718.8z"/>
			</g>
		</g>
		<g>
			<g>
				<path class="st2" d="M-257.1,720.9h-3.1v-18.7h3.1V720.9z M-259.2,719.9h1.1v-16.7h-1.1V719.9z"/>
			</g>
		</g>
		<g>
			<g>
				<path class="st2" d="M-266.2,721.9h-3.7v-19h3.7V721.9z M-268.8,720.9h1.7v-17h-1.7V720.9z"/>
			</g>
		</g>
		<g>
			<g>
				<path class="st2" d="M-275.5,723.1h-3.6v-19.9h3.6V723.1z M-278.1,722.1h1.6v-17.9h-1.6V722.1z"/>
			</g>
		</g>
		<g>
			<g>
				<g>
					<path class="st2" d="M-337,721.8h-11.1l0-0.5l-1.7-78.8h11.8l-0.1,3L-337,721.8z M-347.2,720.8h9.1l-1.1-75.3l0.1-2h-9.8
						L-347.2,720.8z"/>
				</g>
			</g>
			<g>
				<g>
					<path class="st2" d="M-353.3,643.5v-12.3h19.3v12.1L-353.3,643.5z M-352.3,632.2v10.3l17.3-0.1v-10.2H-352.3z"/>
				</g>
			</g>
			<g>
				<g>
					<path class="st2" d="M-327.2,633.3l-33.2-0.5v-4.2l14.2-5.5l6,0l12.2,4.1L-327.2,633.3z M-359.4,631.8l31,0.5l-0.6-4.2
						l-11.5-3.9h-5.6l-13.3,5.2V631.8z"/>
				</g>
			</g>
			<g>
				<g>
					<path class="st2" d="M-339.9,624.1h-6.8l-0.7-23.3v-2.9h7.5V624.1z M-345.7,623.1h4.8v-24.2h-5.5v1.9L-345.7,623.1z"/>
				</g>
			</g>
		</g>
		<g>
			<g>
				<path class="st2" d="M-648.2,727.5h-16.4v-6.1h16.4V727.5z M-663.6,726.5h14.4v-4.1h-14.4V726.5z"/>
			</g>
		</g>
		<g>
			<g>
				<path class="st2" d="M-337,728.4h-11.1v-7.7h11.1V728.4z M-347.1,727.4h9.1v-5.7h-9.1V727.4z"/>
			</g>
		</g>
		<g>
			<g>
				<path class="st2" d="M-333,760.1h-20.3v-32.6h20.3V760.1z M-352.3,759.1h18.3v-30.6h-18.3V759.1z"/>
			</g>
		</g>
		<g>
			<g>
				<path class="st2" d="M-646.3,759.5h-20.3v-32.6h20.3V759.5z M-665.6,758.5h18.3v-30.6h-18.3V758.5z"/>
			</g>
		</g>
	</g>
</g>
<g id="Layer_1">
	<g>
		<defs>
			<rect id="SVGID_1_" width="1080" height="1080"/>
		</defs>
		<clipPath id="SVGID_2_">
			<use xlink:href="#SVGID_1_"  style="overflow:visible;"/>
		</clipPath>
		<g class="st3">
			<g>
				<rect x="270.8" y="640.4" class="st4" width="4.9" height="21.1"/>
				<rect x="282.2" y="618.7" class="st4" width="3.5" height="8.7"/>
				<rect x="270.8" y="613.4" class="st4" width="4.9" height="9.3"/>
				<polygon class="st4" points="290.6,604.8 251.8,590.5 251.9,594.1 291.6,608.5 291.6,604.8 290.7,604.8 				"/>
				<polygon class="st4" points="348.9,608.3 348.9,604.4 292.8,604.8 292.8,608.8 				"/>
				<rect x="282.2" y="640.4" class="st4" width="5.2" height="22.2"/>
				<rect x="310.1" y="621.8" class="st4" width="9.9" height="7.6"/>
				<polygon class="st4" points="350.1,597 350.1,603.1 371.5,603 371.5,596.9 				"/>
				<rect x="312.7" y="645.1" class="st4" width="7.3" height="20.1"/>
				<rect x="259.3" y="611.7" class="st4" width="4.6" height="8.9"/>
				<path class="st4" d="M292.1,669.8l-0.5-60l-39.7-14.4l0.8,70.9L292.1,669.8z M281,617.5h5.9v11.2H281V617.5z M281,639.2h7.7
					v24.7H281V639.2z M269.5,612.2h7.4V624h-7.4V612.2z M269.5,639.2h7.4v23.5h-7.4V639.2z M258.1,610.4h7.1v11.4h-7.1V610.4z
					 M265.2,638v23.8h-7.1V638H265.2z"/>
				<rect x="259.3" y="639.3" class="st4" width="4.6" height="21.4"/>
				<polygon class="st4" points="348.9,597 292.7,597.2 292.8,603.6 348.9,603.1 				"/>
				<path class="st4" d="M354.4,667v0.3h-9.2v-23.4h8.7l-0.2-11.1h-9.2v-12.6h8.9l-0.2-10.7l-60.4,0.6l0.5,59.8l61.1,0.4L354.4,667z
					 M321.3,666.5h-9.7v-22.6h9.7V666.5z M321.3,630.6h-12.4v-10h12.4V630.6z"/>
				<polygon class="st4" points="350.1,608.2 361.6,608.1 371.5,608 371.5,604.2 350.1,604.4 				"/>
				<polygon class="st4" points="366.5,609.4 354.4,609.4 354.7,620.2 354.9,620.2 354.9,632.2 355.7,670.3 367.2,670.4 
					366.4,611.9 				"/>
				<rect x="496.1" y="620" class="st4" width="7.7" height="9.3"/>
				<path class="st4" d="M587.7,668.6h154.4l-1.3-59.2l-4.3,0v-3.8l-363.7,3.6v0l-5,0l-0.1,2.6l0.8,58.4l0.7,0l158.4-3.4l-0.7-46.8
					h59.1L587.7,668.6z M620.3,663.9h-9.2v-19.5h9.2V663.9z M700,662.4h-8.9v-21.1h8.9V662.4z M733.5,662.4h-9.4v-21.1h9.4V662.4z
					 M723.2,616h12.2v12.2h-12.2V616z M689.3,616h13.2v13.2h-13.2V616z M654.1,618.8h11.5v11.5h-11.5V618.8z M654.1,643.2h9.6v20.8
					h-9.6V643.2z M609.6,617.8h12.5v12.5h-12.5V617.8z M391,666.5h-10.5v-21.2H391V666.5z M391.7,631.2h-11.9v-10.6h11.9V631.2z
					 M412.2,620.2h11.4v11.4h-11.4V620.2z M424.3,665.2h-11.2v-19.9h11.2V665.2z M459.2,665.2H448v-19.9h11.2V665.2z M459.9,631.6
					H448v-11.9h11.9V631.6z M505,663.9h-9.2v-20.8h9.2V663.9z M505,630.6h-10.2v-11.8H505V630.6z"/>
				<polygon class="st4" points="367.4,684.3 367.2,671.6 355.8,671.5 356,684.4 				"/>
				<polygon class="st4" points="759.1,605.4 737.7,605.6 737.7,608.2 759.1,608.1 				"/>
				<polygon class="st4" points="372.8,608 736.5,604.4 736.5,601.4 372.8,604.2 				"/>
				<polygon class="st4" points="759.1,604.2 759.1,601.2 737.7,601.4 737.7,604.4 				"/>
				<polygon class="st4" points="642.3,554.5 633.9,547.3 633.9,538.8 628.2,538.3 627.3,547.8 619.1,553.9 619.1,562.5 
					642.3,562.5 				"/>
				<polygon class="st4" points="760.4,595.5 767.3,595.6 767.2,595.2 760.4,595.3 				"/>
				<polygon class="st4" points="821.4,600.7 760.4,601.2 760.4,604.2 820.6,603.6 821.8,603.1 821.8,600.6 821.5,600.7 				"/>
				<rect x="599.1" y="577.8" class="st4" width="5.7" height="15.8"/>
				<polygon class="st4" points="751.8,584.3 751.8,554.4 745,554.4 745,556.7 745.8,584.3 				"/>
				<polygon class="st4" points="615.3,594.6 615.5,594.6 615.5,594.3 615.3,588.7 				"/>
				<rect x="550.1" y="577.8" class="st4" width="12.5" height="7.1"/>
				<polygon class="st4" points="766.5,590.4 752.3,585.5 745.3,585.5 729,592 729,594.2 767,594 				"/>
				<polygon class="st4" points="614.6,569.9 589.6,565.5 589.6,594.7 597.9,594.7 597.9,576.5 606,576.5 606,594.7 614.1,594.6 
					614.1,585.1 614,580.7 615,580.7 				"/>
				<polygon class="st4" points="616.4,582 616.3,582 616.7,594.6 645.5,594.5 644.9,582 				"/>
				<rect x="617.6" y="566.6" class="st4" width="26.5" height="14.1"/>
				<polygon class="st4" points="499.3,594.3 508.9,594.5 508.9,576.5 517.6,576.5 517.6,594.8 526.4,595 526.4,565.1 499.3,571.2 
									"/>
				<path class="st4" d="M527.6,595l60.7-0.3v-29.3l-60.7,0.6V595z M548.8,576.5h15v9.6h-15V576.5z"/>
				<rect x="510.2" y="577.8" class="st4" width="6.3" height="15.8"/>
				<rect x="346.5" y="645.1" class="st4" width="6.7" height="20.9"/>
				<rect x="760.3" y="643.2" class="st4" width="7" height="17.9"/>
				<polygon class="st4" points="754.1,609.4 742,609.4 743.3,668.6 754.8,668.4 754,611.9 				"/>
				<polygon class="st4" points="345.8,631.6 353.7,631.6 353.5,621.4 345.8,621.4 				"/>
				<polygon class="st4" points="760.4,596.7 760.4,600 821.3,599.5 821.7,599.3 821.6,595 768.5,595.2 768.7,596.9 				"/>
				<rect x="760.3" y="619" class="st4" width="8.7" height="8.7"/>
				<polygon class="st4" points="754.8,669.6 743.3,669.9 743.6,683.5 755,683.5 				"/>
				<polygon class="st4" points="823,598.8 941.1,552.3 1036.5,551.3 1036.5,541.1 947.2,542.2 822.9,594.8 				"/>
				<rect x="497.1" y="644.4" class="st4" width="6.7" height="18.3"/>
				<rect x="792.7" y="618.1" class="st4" width="8.9" height="8.9"/>
				<rect x="794" y="643.2" class="st4" width="6.5" height="17.9"/>
				<path class="st4" d="M821.8,604.4l-1,0.4l-0.1,0l-60.3,0.6v3.9l-5,0l-0.1,2.6l0.8,56.4l67.1-1.4L821.8,604.4z M768.5,662.4H759
					V642h9.5V662.4z M770.2,628.9H759v-11.1h11.1V628.9z M801.7,662.4h-8.9V642h8.9V662.4z M802.8,628.3h-11.4v-11.4h11.4V628.3z"/>
				<polygon class="st4" points="759.1,600 759.1,596.7 737.7,596.4 737.7,600.1 				"/>
				<rect x="829.4" y="684.5" class="st4" width="2" height="22.1"/>
				<rect x="840.8" y="684.1" class="st4" width="2.1" height="21.1"/>
				<rect x="726.1" y="685.2" class="st4" width="6.2" height="17.4"/>
				<rect x="449.2" y="620.9" class="st4" width="9.4" height="9.4"/>
				<rect x="852.7" y="683.2" class="st4" width="1.4" height="20.6"/>
				<rect x="414.9" y="685.4" class="st4" width="8.2" height="17"/>
				<rect x="496.1" y="684.5" class="st4" width="7.7" height="17.9"/>
				<rect x="924.5" y="582.7" class="st4" width="5.9" height="63.1"/>
				<rect x="880.8" y="681.5" class="st4" width="4.5" height="21.1"/>
				<rect x="910.6" y="586.1" class="st4" width="8.7" height="61.8"/>
				<rect x="939" y="579.1" class="st4" width="5.5" height="66.7"/>
				<rect x="896" y="680.6" class="st4" width="4.8" height="20.8"/>
				<rect x="448.4" y="684.9" class="st4" width="8.6" height="17.5"/>
				<rect x="65.3" y="580.1" class="st4" width="7.7" height="71.2"/>
				<path class="st4" d="M989.5,515v2.1h4.3v-6.4h-7.4l0-0.6c0-0.6,0.2-14-10.5-14.7l-0.6,0v-11.7l-0.1-2.2h-6l-0.1,14.3l-0.4,0.1
					c-0.3,0.1-8.3,2.8-7.9,14.2l0,0.6h-11.8v6.4h7.4V515H989.5z"/>
				<rect x="124.3" y="526.1" class="st4" width="30.6" height="13.7"/>
				<rect x="957.7" y="516.3" class="st4" width="30.6" height="0.8"/>
				<rect x="124.3" y="524" class="st4" width="30.6" height="0.8"/>
				<rect x="382.4" y="685.4" class="st4" width="7.3" height="17"/>
				<rect x="353.1" y="706.9" class="st4" width="17.8" height="5.1"/>
				<rect x="350.7" y="713.7" class="st4" width="22.6" height="37.8"/>
				<rect x="957.7" y="518.3" class="st4" width="30.6" height="13.7"/>
				<rect x="314.2" y="686" class="st4" width="8.3" height="19"/>
				<path class="st4" d="M119.3,673.9c-9.2,0-11.6,8.9-12,11.1H132C131.6,683,129.1,673.9,119.3,673.9z"/>
				
					<rect x="890.3" y="596.4" transform="matrix(0.9991 -4.179642e-02 4.179642e-02 0.9991 -24.4772 37.8593)" class="st4" width="5.8" height="15.7"/>
				<rect x="655.3" y="620" class="st4" width="9" height="9"/>
				<rect x="610.9" y="619" class="st4" width="10.1" height="10.1"/>
				<rect x="655.3" y="644.4" class="st4" width="7.1" height="18.3"/>
				<rect x="724.5" y="617.2" class="st4" width="9.8" height="9.8"/>
				<rect x="690.5" y="617.2" class="st4" width="10.8" height="10.8"/>
				<rect x="381.7" y="646.5" class="st4" width="8" height="18.7"/>
				<rect x="449.2" y="646.5" class="st4" width="8.7" height="17.5"/>
				<rect x="414.3" y="646.5" class="st4" width="8.7" height="17.5"/>
				<rect x="381" y="621.8" class="st4" width="9.5" height="8.2"/>
				<rect x="413.4" y="621.4" class="st4" width="8.9" height="8.9"/>
				<rect x="725.3" y="642.6" class="st4" width="6.9" height="18.6"/>
				
					<rect x="876.3" y="603.7" transform="matrix(0.9991 -4.177434e-02 4.177434e-02 0.9991 -24.7163 37.2281)" class="st4" width="4.3" height="12.6"/>
				
					<rect x="845.5" y="632.8" transform="matrix(0.9991 -4.178769e-02 4.178769e-02 0.9991 -26.1418 35.9957)" class="st4" width="4.9" height="21.1"/>
				
					<rect x="858.4" y="613.2" transform="matrix(0.9991 -4.178856e-02 4.178856e-02 0.9991 -25.0569 36.5068)" class="st4" width="4.6" height="8.9"/>
				
					<rect x="859.5" y="632.2" transform="matrix(0.9991 -4.177849e-02 4.177849e-02 0.9991 -26.1053 36.5665)" class="st4" width="4.6" height="21.4"/>
				
					<rect x="889.5" y="628" transform="matrix(0.9991 -4.185000e-02 4.185000e-02 0.9991 -25.9214 37.8866)" class="st4" width="4.9" height="20.1"/>
				<rect x="692.3" y="642.6" class="st4" width="6.5" height="18.6"/>
				
					<rect x="877.5" y="630.6" transform="matrix(0.9991 -4.181133e-02 4.181133e-02 0.9991 -26.0077 37.3413)" class="st4" width="4.5" height="19.7"/>
				<rect x="612.4" y="645.6" class="st4" width="6.7" height="17"/>
				<path class="st4" d="M859,663.8l87.8-10.2l2.1,0l-1.6-82.2l-8.8-10.7L823.1,604l1.3,62.9L859,663.8z M937.8,577.8h8V647h-8
					V577.8z M923.3,581.5h8.3V647h-8.3V581.5z M909.3,584.8h11.2v64.2h-11.2V584.8z M896.9,595l0.8,18.2l-8.3,0.3l-0.8-18.2
					L896.9,595z M895.2,626.6l0.9,22.6l-7.4,0.3l-0.9-22.6L895.2,626.6z M883.6,651.4l-7,0.3l-0.9-22.2l7-0.3L883.6,651.4z
					 M881.5,602.4l0.6,15l-6.8,0.3l-0.6-15L881.5,602.4z M865.9,654.6l-7.1,0.3l-1-23.8l7.1-0.3L865.9,654.6z M864,611.8l0.5,11.4
					l-7.1,0.3l-0.5-11.4L864,611.8z M844.7,655.2l-1-23.5l7.4-0.3l1,23.5L844.7,655.2z M850.8,611.8l0.5,11.8l-7.4,0.3l-0.5-11.8
					L850.8,611.8z M839,656.1l-7.7,0.3l-1-24.7l7.7-0.3L839,656.1z M836.5,611.8l0.5,11.2l-5.9,0.2l-0.5-11.2L836.5,611.8z"/>
				
					<rect x="844.9" y="613.2" transform="matrix(0.9991 -4.188326e-02 4.188326e-02 0.9991 -25.1331 36.0338)" class="st4" width="4.9" height="9.3"/>
				
					<rect x="832" y="613.1" transform="matrix(0.9991 -4.179694e-02 4.179694e-02 0.9991 -25.0813 35.3868)" class="st4" width="3.5" height="8.7"/>
				
					<rect x="832.1" y="632.7" transform="matrix(0.9991 -4.180647e-02 4.180647e-02 0.9991 -26.1881 35.4578)" class="st4" width="5.2" height="22.2"/>
				<path class="st4" d="M156.1,522.8v2.1h4.3v-6.4h-7.4l0-0.6c0-0.6,0.2-14-10.5-14.7l-0.6,0v-11.7l-0.1-2.2h-6l-0.1,14.3l-0.4,0.1
					c-0.3,0.1-8.3,2.8-7.9,14.2l0,0.6h-11.8v6.4h7.4v-2.1H156.1z"/>
				<polygon class="st4" points="612.4,701.4 619.1,701.4 619.1,685.1 612.4,685.1 				"/>
				<polygon class="st4" points="657.1,701.4 666,701.4 666,684.9 657.1,685 				"/>
				<polygon class="st4" points="356.5,705 367.7,705 367.4,685.6 356.1,685.7 				"/>
				<polygon class="st4" points="313.6,684.8 354.8,684.4 354.5,671.5 293.4,671.1 293.5,684.9 294.5,684.9 312.9,684.8 
					312.9,684.8 				"/>
				<polygon class="st4" points="696.5,701.4 703.6,701.4 703.6,684.8 696.5,684.9 				"/>
				<rect x="346.5" y="686" class="st4" width="7.2" height="18"/>
				<path class="st4" d="M586.5,669.9l-1.8-48.4h-56.7l0.7,46.8l-0.6,0l-159,3.4l-0.7,0l0.2,12.7l12.5-0.1v0h0.6l65.4-0.5v0h0.6
					l47.1-0.4v0h0.6l41.7-0.3l-0.7-39l0-0.1c0-0.1,3.8-14.8,20.4-14.8c14.7,0,20.4,13.7,20.5,13.8l0,0.2l0.7,40.8l33.1-0.1v-0.6h9.2
					v0.5l35.5-0.1v-0.4h11.4v0.4l28.1-0.1v-0.3h9.5v0.3l37.5-0.1l-0.3-13.6H586.5z"/>
				<polygon class="st4" points="613,563.9 613,565.4 616.4,565.4 645.3,565.4 646.7,565.4 646.7,563.8 643.5,563.8 617.9,563.8 
					613,563.8 613,563.9 				"/>
				<polygon class="st4" points="744.1,705 755.3,705 755,684.7 743.6,684.7 				"/>
				<rect x="744.1" y="706.2" class="st4" width="11.2" height="7"/>
				<polygon class="st4" points="795.5,701.4 802.6,701.4 802.6,684.6 795.5,684.6 				"/>
				<polygon class="st4" points="250.6,590 242.3,586.9 242.3,590.6 250.6,593.6 				"/>
				<rect x="214.3" y="686.2" class="st4" width="4.8" height="20.6"/>
				<path class="st4" d="M188.4,669.6c-5.2,0-6.2,9.9-6.2,10l0,5.4H195l0-5.4C195,679.5,193.9,669.6,188.4,669.6z"/>
				<rect x="229.8" y="686.2" class="st4" width="4.5" height="21.1"/>
				<polygon class="st4" points="251.4,666.2 250.6,594.9 242.3,591.9 242.3,592.9 243.5,665.5 250.1,666 				"/>
				<polygon class="st4" points="252.7,667.5 252.9,684.9 259.8,684.9 263.6,684.9 271.4,684.9 276,684.9 282.4,684.9 286.9,684.9 
					292.3,684.9 292.2,671.1 				"/>
				<polygon class="st4" points="243.5,666.7 243.9,684.9 251.6,684.9 251.4,667.4 250,667.3 				"/>
				<path class="st4" d="M166.8,660l-0.8,0l0.2,25H181l0-5.4c0-0.5,1.1-11.1,7.5-11.1c6.6,0,7.7,10.6,7.8,11.1l0,5.5H213v-0.2h7.3
					v0.2h8.3h7h7.1l-0.3-18.3L166.8,660z"/>
				<rect x="283.7" y="686.2" class="st4" width="2" height="22.1"/>
				<rect x="272.7" y="686.2" class="st4" width="2.1" height="21.1"/>
				<rect x="261" y="686.2" class="st4" width="1.4" height="20.6"/>
				<polygon class="st4" points="244.5,721.7 252.1,721.7 251.7,686.2 243.9,686.2 				"/>
				<polygon class="st4" points="737.7,714.4 737.7,752.2 760.3,752.2 760.3,714.4 756.6,714.4 742.9,714.4 				"/>
				<rect x="227" y="601.1" class="st4" width="4.3" height="12.6"/>
				<rect x="193.3" y="589.5" class="st4" width="8.7" height="61.8"/>
				<rect x="212.4" y="632.8" class="st4" width="4.9" height="20.1"/>
				<rect x="211.2" y="599.6" class="st4" width="4.9" height="12.6"/>
				<rect x="1033.6" y="573.1" class="st4" width="8.4" height="71.2"/>
				<rect x="229.8" y="634.9" class="st4" width="4.5" height="19.7"/>
				<path class="st4" d="M-72.3,282.9V979h1224.6V282.9H-72.3z M113.7,539.8h9.4v-13.7h-8.6v-8.8h11.7c-0.1-10.3,6.6-13.8,8.4-14.6
					l0.1-14.7h8.4l0.1,3.4l0,10.6c10,1.1,11,12.4,11.1,15.2h7.4v8.8h-5.6v13.7h8.8v8.4h-1.2v-7.2h-48.8v6.5h-1.2V539.8z M64,578.8
					h10.2v73.6H64V578.8z M565.6,706.1l-0.2-20.7c0-0.2-1.3-7.2-8-7.2c-6.4,0-7.6,7-7.7,7.3l-0.1,21l-1.2,0l0.1-21
					c0-0.2,1.4-8.4,8.9-8.4c7.8,0,9.3,8.3,9.3,8.3l0.2,20.8L565.6,706.1z M1050.8,677.6h-42.7l0.2,31.5l-1.2,0l-0.2-31.5H982
					l-0.1,32l-1.2,0l0.1-32h-30.2l1,50l-1.2,0l-1-50h-0.6l-13.5,0.8l0.1,27l-1.2,0l-0.1-27l-12.8,0.7l-0.1,26.7l-1.2,0l0.1-26.6
					l-17.8,1v22.5h-7.3v-22.1l-8.3,0.5v22.7h-7v-22.3l-24.2,1.3v22.3h-3.9V683l-7.4,0.4v23h-4.5v-22.7l-6.9,0.4v23.8h-4.5v-23.6
					l-3.4,0.2l0.6,27.7l-1.2,0l-0.6-27.7l-19.6,0.1v18.1h-9.6v-18.1l-23.1,0.1v19.2h-10.8v-19.2l-4.1,0l0.3,20.3h0v0.6l0,0.6h0v7h5
					v40.3h-25.1v-40.3h6.3v-7.6l-0.4-20.9l-8.9,0v19.1h-8.6v-19.1l-20,0.1v17.8h-9.5v-17.8l-28.1,0.1v17.7h-11.4V685l-35.5,0.1v17.6
					h-9.2v-17.6l-33.1,0.1l0.3,19.5l-1.2,0l-1-61.5c-0.5-1.2-6.1-12.9-19.3-12.9c-15,0-18.9,12.7-19.2,13.8l1.1,61.5l-1.2,0
					l-0.4-21.4l-32.1,0.3v19.2h-10.2v-19.1l-36.7,0.3v18.8h-11v-18.7l-22.8,0.2v18.6h-10.6v-18.5l-22.7,0.2v18.3h-9.8v-18.2
					l-12.5,0.1l0.3,20.1h3.2v6.8h2.4v40.3h-25.1v-40.3h2.4v-6.8h3.4l0-0.1l-0.3-15.3v14.9h-9.7v-19.5l-21.5,0.2v20.3h-10.8V686
					l-18.4,0.2h-1l0.3,32l-1.2,0l-0.3-32h-5.4v23.3h-4.5v-23.3H276v22.3h-4.5v-22.3h-7.8V708h-3.9v-21.9h-6.9l0.4,36.8h-10
					l-0.6-36.8h-7.1v22.3h-7v-22.3h-8.3V708H213v-21.9h-16.8l0.1,21.2l-1.2,0l-0.1-21.2h-12.8l0,21.7l-1.2,0l0.1-21.7h-14.8
					l0.4,46.7l-1.2,0l-0.4-46.7h-31.6l0.2,31.1l-1.2,0l-0.2-31.1h-24.8l-0.1,31.6l-1.2,0l0.1-31.6H62.3v-1.2h43.7
					c0.4-2.1,3.1-12.3,13.3-12.3c10.8,0,13.5,10.5,13.9,12.3h31.7l-0.2-24.9l-96.8,1.9l0-1.2l96.8-1.9l-0.7-81l10.4-10.4H65.5v-1.2
					h111.9l-12.2,12.2l0.7,80.5l0.9,0l75.5,6.6l-1.2-72.5v-1.4L176.4,568l0.4-1.2l64.3,23.4v-3.7l-75.3-28.1H71.5v-11.2l98.6,1.2
					l70.9,27.7v-9.9h10.5l0,0.6l0.2,13.5l40.5,15.8l47.9-0.2v-4.7l16.9-6.6l-0.9-27.8v-3.6h9.3v31.3l14.6,5l0.9,6.2l85.7-0.4v-9.7
					l-0.1-4.4h2.4v-14.1h-4.6V563h6.2v-9.2l8.2-6.2l0.9-10.2l8.1,0.7v9.1l8.4,7.2v8.6h4.4v1.1l2-0.6l0.9-39.8l0.4-18.2l9.8-1.6
					c3.1-35.3,32-40,34-40.3v-13.4h-5.3v-4.2l10.8-10l-0.2-20.8h7.6l0.9,20.8l10.3,8.2l0.4,6h-6.4v13.4l0,0
					c0.3,0.1,33.1,8,34.1,41.7l8.3,1.8l0.9,15.6l0,0.7l3.5,1.1l0.5,38.1h4.9v-9.2l8.2-6.2l0.9-10.2l8.1,0.7v9.1l8.4,7.2v8.6h4.4v4.1
					h-2.6v14.1h0.7l0.6,13.8l81-0.3v-3.1l16.9-6.6l-0.9-27.8v-3.6h9.3v31.3l14.6,5l0.6,4.5l53.8-0.2L947,540.9l0.1,0l50-0.6v-7
					h-48.8v6.5h-1.2v-7.7h9.4v-13.7h-8.6v-8.8h11.7c-0.1-10.3,6.6-13.8,8.4-14.6l0.1-14.7h8.4l0.1,3.4v10.6
					c10,1.1,11,12.4,11.1,15.2h7.4v8.8h-5.6v13.7h8.8v8.3l39.4-0.5v12.7l-0.6,0l-95.8,1L823,600.1l0.1,2.5l115.7-43.4l0.1,0.1h109.4
					v1.2H939.9l8.5,10.3l0,0.2l1.6,82.5l94.8,0v1.2h-94.8l0.4,21.5l30.4,0c0.6-2.7,3.5-11.9,13.2-11.9c10.2,0,13.2,9.3,13.8,11.9
					l42.9,0V677.6z M77.8,652.5v-73.6H88v73.6H77.8z M91.5,652.5v-73.6h10.2v73.6H91.5z M106.8,652.5v-73.6h25.9v73.6H106.8z
					 M136.6,652.5v-73.6h10.2v73.6H136.6z M151.1,652.5v-73.6h10.2v73.6H151.1z M174.8,581.2v69.2h-8v-69.2H174.8z M180.9,650.4
					v-65.5h8.3v65.5H180.9z M192,652.5v-64.2h11.2v64.2H192z M217.3,613.4h-7.4v-15h7.4V613.4z M218.5,631.6v22.6h-7.4v-22.6H218.5z
					 M232.6,614.9h-6.8v-15h6.8V614.9z M235.5,633.6v22.2h-7v-22.2H235.5z M1043.3,571.9v73.6h-10.9v-73.6H1043.3z M1028.1,571.9
					v73.6h-10.9v-73.6H1028.1z M1012.9,571.9v73.6h-27.8v-73.6H1012.9z M979.5,571.9v73.6h-10.9v-73.6H979.5z M964.8,571.9v73.6
					h-10.9v-73.6H964.8z"/>
				<rect x="955.2" y="573.1" class="st4" width="8.4" height="71.2"/>
				<polygon class="st4" points="756.1,669.6 756.3,683.5 760.3,683.4 760.3,683.3 771.1,683.3 771.1,683.4 794.3,683.4 
					794.3,683.3 803.9,683.3 803.9,683.3 823.5,683.3 823.2,668.2 				"/>
				<rect x="1018.4" y="573.1" class="st4" width="8.4" height="71.2"/>
				<rect x="986.3" y="573.1" class="st4" width="25.3" height="71.2"/>
				<rect x="969.9" y="573.1" class="st4" width="8.4" height="71.2"/>
				<rect x="79" y="580.1" class="st4" width="7.7" height="71.2"/>
				<path class="st4" d="M994.1,665.7c-8.7,0-11.3,8-11.9,10.7l24.5,0C1006,673.8,1003.3,665.7,994.1,665.7z"/>
				<path class="st4" d="M946.8,654.8L859.1,665l-34.7,3.1l0.3,15.1l95.2-5.3l0-0.5c0-0.5,1.1-11.1,7.5-11.1c6.1,0,7.5,9,7.7,10.8
					l13.6-0.8h0.6l-0.4-21.5H946.8z"/>
				<path class="st4" d="M927.4,667.5c-5.2,0-6.2,9.9-6.2,10l0,0.4l12.7-0.7C933.6,675.6,932.3,667.5,927.4,667.5z"/>
				<rect x="92.7" y="580.1" class="st4" width="7.7" height="71.2"/>
				<rect x="168" y="582.5" class="st4" width="5.5" height="66.7"/>
				<rect x="108" y="580.1" class="st4" width="23.4" height="71.2"/>
				<rect x="152.3" y="580.1" class="st4" width="7.7" height="71.2"/>
				<rect x="182.2" y="586.1" class="st4" width="5.9" height="63.1"/>
				<rect x="137.8" y="580.1" class="st4" width="7.7" height="71.2"/>
				<polygon class="st4" points="761.6,702.6 769.9,702.6 769.9,684.7 761.6,684.7 				"/>
				<polygon class="st4" points="169.8,549.5 72.8,548.5 72.8,557.1 165.9,557.1 166,557.2 241.1,585.2 241.1,577.3 				"/>
				<path class="st4" d="M538.2,488.7c0.5-13.5,3.6-20.3,5.3-23c-7.2,2.2-21.6,8.8-26.9,28L538.2,488.7z"/>
				<polygon class="st4" points="539.7,555.9 538,525.9 542.2,525.9 541.3,518.1 527.1,517.7 526.8,517.8 526.3,518 527,525.9 
					532.6,525.9 533.4,557.2 538.7,556.1 				"/>
				<polygon class="st4" points="576,556.5 582,556.5 582,523.8 584.6,523.8 584.9,517 584,516.7 570.5,517.2 570.5,523.8 
					577.4,523.8 				"/>
				<path class="st4" d="M525,517.1L525,517.1l1.9-0.6l0.1,0l11-0.2c0-1.1,0-5.8,0.3-15.3H538l-33,5.5l-0.4,16.6L525,517.1z"/>
				<path class="st4" d="M574.7,515.6c0-2.4-0.1-9.1-0.5-14.6h-34.6c-0.3,9.4-0.3,14.1-0.3,15.3L574.7,515.6z"/>
				<polygon class="st4" points="497.9,567.1 497.9,581.2 498.1,581.2 498.1,570.2 527.6,563.6 527.6,564.8 588.3,564.2 
					588.3,564.1 589,564.2 589.6,564.2 589.6,564.3 615.8,568.8 616.2,580.7 616.4,580.7 616.4,566.6 611.7,566.6 611.7,563.7 
					583.5,557.9 575.7,557.8 574.7,557.8 574.7,557.8 540.4,557.1 532.2,558.7 532.2,558.7 504.1,564.1 504.2,564.2 500.5,565.4 
					500.5,567.1 				"/>
				<rect x="548.8" y="450.1" class="st4" width="15.6" height="12.3"/>
				<polygon class="st4" points="494.8,555 486.5,547.8 486.5,539.3 480.7,538.8 479.9,548.3 471.7,554.4 471.7,563 494.8,563 				
					"/>
				<path class="st4" d="M538.4,499.8c0-0.1,0-0.3,0-0.4c-0.2-3.4-0.3-6.5-0.2-9.4l-21.9,5.1c-0.6,2.6-1.1,5.4-1.4,8.5l23.1-3.8
					L538.4,499.8z"/>
				<path class="st4" d="M526.1,538.9c0-0.1,0.1-2.3-1.2-3.7c-0.7-0.8-1.7-1.1-3-1.1c-1.6,0-2.8,0.4-3.6,1.3
					c-1.2,1.3-1.1,3.3-1.1,3.3l0,21.7l9.1-1.8L526.1,538.9z"/>
				<path class="st4" d="M556.3,529.5c-5.1,0-6.1,7-6.1,7.1l-0.1,19.4l12.7,0.3l-0.1-19.7C562.7,536.3,561.7,529.5,556.3,529.5z"/>
				<polygon class="st4" points="510.6,522.6 504.6,524.4 503.7,562.9 510.1,561.7 				"/>
				<path class="st4" d="M565,464.7c2.3,3.9,7.2,13,9.3,24l22.4,5c-6.7-22.6-29.9-28.7-31.3-29H565z"/>
				<path class="st4" d="M574.6,490c0.6,3.2,0.9,6.6,0.8,10l23.1,5c-0.1-3.6-0.6-6.9-1.4-9.9L574.6,490z"/>
				<polygon class="st4" points="570.7,448.9 570.4,444.8 560.1,436.5 559.2,416.4 554.1,416.4 554.3,436.5 543.5,446.5 
					543.5,448.9 547.5,448.9 565.6,448.9 				"/>
				<path class="st4" d="M576.1,525.1h-6.9V517l-26.7,0.5l1,9.7h-4.2l1.6,28.7l7.9,0.2l0.1-19.5c0-0.2,1.1-8.3,7.3-8.3
					c6.5,0,7.7,8.1,7.7,8.2l0.1,19.8l10.7,0.2L576.1,525.1z"/>
				<path class="st4" d="M531.4,527.1h-5.5l-0.7-8.8l-13.3,3.9l-0.5,39.2l4.5-0.9v-21.9c0-0.1-0.2-2.4,1.5-4.2
					c1.1-1.1,2.6-1.7,4.5-1.7c1.7,0,3,0.5,3.9,1.5c1.7,1.8,1.6,4.5,1.6,4.6l0.1,19.4l4.7-0.9L531.4,527.1z"/>
				<path class="st4" d="M576,515.6l8.1-0.1l0.2,0l2,0.6l0,0l21.5,6.8v-0.2l-0.9-14.6l-31.4-6.8C575.9,506.8,575.9,513.2,576,515.6z
					"/>
				<polygon class="st4" points="499.2,565.9 499.2,564.3 496.1,564.3 470.5,564.3 465.5,564.3 465.5,565.9 468.9,565.9 
					497.9,565.9 				"/>
				<polygon class="st4" points="348.9,594.3 372.8,594.3 372.8,595.5 379.7,595.6 378.9,590.4 364.7,585.5 357.7,585.5 341.4,592 
					341.4,595 348.9,595.1 				"/>
				<path class="st4" d="M539.5,488.6l33.6,0c-2.3-11.3-7.5-20.6-9.5-23.9h-15.8c0,0-0.9,0.1-2.3,0.5
					C544.7,466.2,540.1,472.4,539.5,488.6z"/>
				<polygon class="st4" points="364.2,584.3 364.2,554.4 357.4,554.4 357.4,556.7 358.2,584.3 				"/>
				<polygon class="st4" points="290.9,603.6 291.5,603.6 291.5,597 251.7,581.5 251.8,589.1 				"/>
				<polygon class="st4" points="380.3,596.8 372.8,596.9 372.8,602.9 736.5,600.1 736.5,596.4 727.7,596.2 727.7,595.4 
					646.8,595.7 646.8,595.7 614.1,596 614.1,595.9 589.6,596.2 589.6,596.2 589,596.2 588.3,596.2 588.3,596.2 527.6,596.2 
					527.6,596.2 527,596.2 467.3,596.5 466.6,596.5 466.6,596.5 381.1,596.8 381.1,596.9 				"/>
				<polygon class="st4" points="250.3,567.3 242.3,567.3 242.3,576.5 250.5,579.7 				"/>
				<path class="st4" d="M602.2,560l-1.2,0l-1-38.2l0.1,0l-13.9-4.4l-0.4,7.7h-2.5v31.6l0.4,0l2.1,0.4l0-19.8c0.3-2.2,1.9-6.3,6-6.3
					c4.2,0,5.9,4.6,6.2,7l0.1,21.6l13.5,2.7l-0.5-37.1l-10.1-3.2L602.2,560z"/>
				<polygon class="st4" points="467.9,595.2 498,595 497.5,582.5 468.9,582.5 467.8,582.5 467.9,585.6 				"/>
				<path class="st4" d="M591.8,532.3c-4,0-4.7,5.1-4.7,5.1l0,20l9.9,2l-0.1-21.3C596.8,538.1,596,532.3,591.8,532.3z"/>
				<polygon class="st4" points="250.5,581 242.3,577.8 242.3,585.6 250.6,588.7 				"/>
				<path class="st4" d="M574.2,499.8c0-3.4-0.3-6.7-0.9-9.9h-33.8c-0.1,2.9,0,6,0.2,9.5c0,0.1,0,0.3,0,0.4L574.2,499.8z"/>
				<rect x="470.2" y="567.1" class="st4" width="26.5" height="14.1"/>
			</g>
			<rect class="st4" width="1080" height="351.7"/>
			<rect y="877.8" class="st4" width="1080" height="202.2"/>
		</g>
	</g>
</g>
</svg>
