<?xml version="1.0" encoding="utf-8"?>
<!-- Generator: Adobe Illustrator 25.0.1, SVG Export Plug-In . SVG Version: 6.00 Build 0)  -->
<svg version="1.1" id="Layer_1" xmlns="http://www.w3.org/2000/svg" xmlns:xlink="http://www.w3.org/1999/xlink" x="0px" y="0px"
	 viewBox="0 0 1080 1080" style="enable-background:new 0 0 1080 1080;" xml:space="preserve">
<style type="text/css">
	.st0{opacity:0.5;}
	.st1{fill:#0F0E0E;}
	.st2{fill:#131721;}
	.st3{fill:#161616;}
</style>
<g class="st0">
	<path class="st1" d="M191.9,391.9c14.6,0,28.6,0,43,0c0,69.3,0,138.6,0,208.1c-0.9,0-1.9,0.1-2.8,0.1c-14.3,0-28.6,0-42.9,0.1
		c-2.1,0-3-0.7-4-2.5c-25.8-45.5-51.6-91.1-77.5-136.6c-0.5-0.8-1-1.6-2.1-2.3c0.5,47,1,94,1.4,141.1c-14.7,0-29.1,0-43.8,0
		c0-69.2,0-138.5,0-208.2c1,0,2.1,0,3.1,0c15.6,0,31.1,0.1,46.7-0.1c2.5,0,3.8,0.7,5,2.9c24.3,43.1,48.7,86.2,73.1,129.3
		c0.5,0.8,1,1.6,2.1,2.3C192.8,481.5,192.4,436.8,191.9,391.9z M106,445.5c-0.4,0.1-0.7,0.2-1.1,0.3c0.6,3.1,0.4,6.5,1.8,9.1
		c26.4,47,53.1,93.8,79.7,140.7c1,1.7,2,2.3,3.9,2.3c13.2-0.1,26.4,0,39.6-0.1c0.9,0,1.7-0.1,2.7-0.1c0-3.5,0-6.9,0-10.4
		c-1.3,0-2.3,0-3.4,0c-13.4,0-26.8,0-40.2,0c-1.8,0-2.8-0.5-3.7-2.1c-25.1-44.3-50.2-88.5-75.3-132.8
		C108.7,450.1,107.4,447.8,106,445.5z M104.6,597.7c0-3.6,0-6.9,0-10.2c-13.1,0-26.1,0-39,0c0,3.5,0,6.8,0,10.2
		C78.7,597.7,91.6,597.7,104.6,597.7z"/>
	<path class="st1" d="M628.5,549.7c0-10.1,0-19.8,0-29.8c-17.8,0-35.7,0-53.7,0c0-16.5,0-32.8,0-49.2c32.3,0,64.6,0,97.3,0
		c0,43.1,0,86.1,0,129.5c-1.3,0-2.3,0-3.4,0c-31.9,0-63.8,0.6-95.7-0.2c-35.6-0.9-64.9-18.6-75.5-55.7c-4.6-16.2-5.7-32.6-5.6-49.2
		c0.1-12.5-0.4-25,2.7-37.3c4.1-16.4,10.4-31.8,22.8-43.8c11.3-11,24.8-18.3,40.6-20.3c8.6-1.1,17.3-1.7,26-1.8
		c28.5-0.2,56.9-0.1,85.4-0.1c0.8,0,1.5,0,2.6,0c0,16.3,0,32.3,0,48.7c-1.2,0-2.3,0-3.3,0c-29.1,0-58.1,0-87.2,0
		c-17.9,0-30.4,8.5-36.7,25.1c-1.2,3.3-2.1,6.7-2.9,10.1c-3.9,18-3.1,35.6,3.8,52.8c5.2,12.8,15.1,19.2,28.5,20.6
		c6.2,0.6,12.5,0.6,18.7,0.6C604.7,549.8,616.4,549.7,628.5,549.7z M670,587.2c-1.5,0-2.6,0-3.8,0c-27.3,0-54.6,0.1-81.9-0.1
		c-7.4,0-14.8-0.4-22.2-1.2c-17.4-1.8-32.7-8.7-45.4-20.8c-8.4-8-13.9-17.8-17.5-28.7c-0.4-1.1-1-2.2-1.5-3.3
		c-0.3,0.1-0.6,0.2-0.9,0.4c0.8,3.1,1.6,6.1,2.5,9.2c4.2,14.4,10.8,27.2,22.7,37.1c14.6,12.2,31.6,17.5,50,17.8
		c31.5,0.5,63,0.1,94.5,0.1c1.1,0,2.2,0,3.4,0C670,594.1,670,590.9,670,587.2z M670,427.8c-0.8-0.1-1.4-0.2-1.9-0.2
		c-29.6,0-59.3-0.2-88.9,0.2c-5.4,0.1-11.1,1.6-16,3.9c-14.3,6.8-19.2,20-21.6,34.5c0.8-0.9,1.4-1.9,1.8-2.9
		c4.3-10,10.7-18.2,21.3-21.7c5.9-2,12.4-3.2,18.6-3.2c27.8-0.3,55.5-0.1,83.3-0.1c1.1,0,2.3,0,3.5,0C670,434.5,670,431.3,670,427.8
		z M628.4,507.1c-17.3,0-34.4,0-51.4,0c0,3.5,0,6.8,0,10.1c17.2,0,34.3,0,51.4,0C628.4,513.7,628.4,510.5,628.4,507.1z"/>
	<path class="st1" d="M419.5,391.8c0,16.7,0,33,0,49.7c-1.3,0-2.4,0-3.6,0c-32,0-64-0.1-96,0.1c-5.7,0-11.5,0.8-17.1,2
		c-5.7,1.3-10.2,4.8-12.9,10.2c-2.3,4.7-1.9,7.6,1.7,11.4c3.9,4,8.7,6.2,14.2,6.9c3,0.4,6,0.6,9.1,0.6c18,0.1,36-0.2,54,0.1
		c8.1,0.1,16.4,0.2,24.2,2.1c17,4,31.7,15.2,34.5,35.6c2,14.4,2.5,29,0.4,43.3c-3.4,22.6-13.4,37.3-39.6,43.2
		c-8.6,1.9-17.6,2.9-26.4,3c-36.4,0.3-72.8,0.1-109.2,0.1c-0.5,0-1,0-1.6,0c0-16.6,0-33.1,0-49.8c1.1,0,2.2,0,3.2,0
		c34.3,0,68.7,0,103-0.1c6.4,0,12.6-1.2,18.4-4c4.4-2.1,7.3-5.7,7.6-10.4c0.2-4.6-2.4-8.3-6.5-10.7c-4.5-2.7-9.5-3.6-14.6-3.6
		c-17.7-0.2-35.4-0.2-53.1-0.3c-10.9-0.1-21.6-1-32.1-4.4c-19.7-6.4-30.9-19.7-33.2-40.2c-1.6-14.2-2.2-28.5,0.9-42.6
		c4.8-22.1,18.6-35.5,40.8-39.7c7.3-1.4,14.7-2.3,22.1-2.4c36.6-0.2,73.2-0.1,109.8-0.1C418.1,391.8,418.6,391.8,419.5,391.8z
		 M314.5,439.2c0.3,0,0.6,0.1,0.9,0.1c33.2,0,66.4,0,99.6,0c0.8,0,1.6-0.4,2.3-0.6c0-3.3,0-6.5,0-9.8c-1.1-0.1-1.8-0.1-2.5-0.1
		c-32.4,0-64.7-0.1-97.1,0.1c-4.8,0-9.8,0.7-14.4,1.9c-10.3,2.7-16.4,11.7-15.3,22.4c2.8-5.4,6.8-9,12-10.7
		C304.6,440.9,309.6,440.2,314.5,439.2z M299.6,518.6c0.7,0.2,1.5,0.5,2.2,0.5c18.9,0,37.7,0,56.6,0c9.5,0.6,19,1.1,25.6,9.9
		c0.1-11.5-3.4-16.2-12.4-18.8c-3.2-0.9-6.7-1.5-10.1-1.5c-17.6-0.2-35.2,0-52.8-0.2c-9.4-0.1-18.7-0.8-27.8-3.4
		c-10.8-3-20.8-7.7-27.7-17c-3-4.1-5.1-8.9-7.5-13.1c0.1-0.3,0-0.2,0,0c0.2,1.3,0.3,2.5,0.5,3.8c2.5,14.3,9.3,25.5,22.6,32.3
		C278.6,515.9,288.9,518.2,299.6,518.6z M426.4,550.1c-0.2,0.4-0.3,0.6-0.4,0.9c-0.2,0.6-0.5,1.3-0.7,1.9
		c-4.8,15.3-15.4,24.7-30.4,29.6c-11,3.6-22.3,4.7-33.8,4.7c-34.7,0.1-69.4,0-104.2,0c-1.1,0-2.3,0-3.4,0c0,3.7,0,7,0,10.4
		c1,0.1,1.9,0.1,2.8,0.1c36.4,0,72.8,0.2,109.2-0.1c7.9-0.1,16-1.2,23.7-3C413.2,589,423.7,573.8,426.4,550.1z"/>
	<path class="st1" d="M841.2,600c-14.3,0-28.1,0-42.3,0c0-26.9,0-53.7,0-80.7c-24.2,0-48.1,0-72.2,0c0,26.8,0,53.6,0,80.6
		c-14.3,0-28.4,0-42.7,0c0-69.2,0-138.5,0-207.9c14.1,0,28.2,0,42.6,0c0,26,0,51.8,0,77.8c24.2,0,48.1,0,72.3,0c0-26,0-51.8,0-77.8
		c14.2,0,28.2,0,42.4,0C841.2,461.2,841.2,530.5,841.2,600z M798.2,516.8c0.3-3.5,0.6-6.9,0.8-10.4c-1.1-0.1-1.5-0.2-1.9-0.2
		c-22.8,0-45.6,0-68.4,0c-0.7,0-1.4,0.4-2.1,0.6c0,3.3,0,6.6,0,9.8c0.6,0.1,0.9,0.2,1.2,0.2C751.3,516.8,774.7,516.8,798.2,516.8z
		 M686.1,597.5c12.9,0,25.4,0,37.9,0c0-3.5,0-6.8,0-10.1c-12.7,0-25.3,0-37.9,0C686.1,590.9,686.1,594.1,686.1,597.5z M801.2,597.5
		c12.8,0,25.4,0,37.8,0c0-3.5,0-6.8,0-10c-12.7,0-25.3,0-37.8,0C801.2,590.9,801.2,594.1,801.2,597.5z"/>
	<path class="st1" d="M1018.4,392c0,16.3,0,32.5,0,48.9c-20.8,0-41.3,0-62.1,0c0,53.1,0,106,0,159c-14.9,0-29.5,0-44.5,0
		c0-52.9,0-105.7,0-158.9c-20.8,0-41.2,0-61.8,0c0-16.5,0-32.6,0-49C906,392,962,392,1018.4,392z M852.3,438.1
		c0.7,0.2,1.4,0.6,2.1,0.6c18.3,0,36.6,0,54.8,0c0.8,0,1.6-0.4,2.3-0.6c0-3.5,0-6.9,0-10.3c-20,0-39.5,0-59.2,0
		C852.3,431.3,852.3,434.7,852.3,438.1z M956.4,427.7c0,3.8,0,7.3,0,10.9c20.1,0,40,0,59.9,0c0-3.7,0-7.3,0-10.9
		C996.2,427.7,976.4,427.7,956.4,427.7z M953.7,586.8c-13.4,0-26.4,0-39.6,0c0,3.7,0,7.3,0,10.8c13.3,0,26.4,0,39.6,0
		C953.7,594,953.7,590.5,953.7,586.8z"/>
	<path class="st1" d="M482.2,600c-14.9,0-29.5,0-44.3,0c0-69.3,0-138.5,0-208c14.7,0,29.4,0,44.3,0
		C482.2,461.2,482.2,530.5,482.2,600z M440.1,597.6c13.5,0,26.6,0,39.8,0c0-3.5,0-6.7,0-10.1c-13.4,0-26.6,0-39.8,0
		C440.1,590.9,440.1,594.1,440.1,597.6z"/>
	<path class="st1" d="M931.5,686.9c-2.5,0-4.7,0-7.3,0c0.9-4.7,1.7-9.2,2.7-13.7c1.8-9.1,3.9-18.2,5.5-27.4c0.5-3.2,1.8-3.9,4.8-3.1
		c3.1,9.7,6.3,19.5,9.5,29.3c0.2,0,0.4,0,0.6-0.1c3-9.7,6.1-19.4,9.1-29.3c1.2,0,2.5,0,4.1,0c3,14.7,6,29.5,9.1,44.3
		c-2.5,0-4.9,0-7.4,0c-1.5-7.8-3-15.5-4.5-23.3c-0.2,0-0.4,0-0.6,0c-1.9,5-3.7,10.1-5.6,15.1c-0.9,2.5-1.7,4.9-2.7,7.4
		c-0.3,0.6-1.2,1.5-1.6,1.4c-0.7-0.1-1.7-0.8-2-1.5c-2.6-6.9-5.1-13.8-7.6-20.8c-0.2-0.5-0.4-1-1-2.4
		C934.7,671.3,933.1,679.1,931.5,686.9z"/>
	<path class="st1" d="M337.4,687.2c0-15.2,0-29.9,0-44.7c6.2,0,12.5-0.7,18.5,0.2c7.9,1.2,11.4,10.2,6.9,15.8c-0.9,1.1-2.1,2-3.3,3
		c0.1,0.1,0.2,0.5,0.4,0.5c6.6,2.7,8,8.2,7.2,14.1c-0.7,5-5.5,9.5-11.4,10.1C349.8,686.9,343.7,686.9,337.4,687.2z M345.1,680.8
		c3.2-0.3,6.3-0.2,9.2-0.9c3.6-0.8,5.3-3.5,5.1-7.4c-0.1-3.9-1.7-6-5.5-6.7c-2.8-0.5-5.7-0.5-8.8-0.7
		C345.1,670.4,345.1,675.3,345.1,680.8z M345.1,659.7c3-0.3,5.7-0.3,8.3-0.9c2.6-0.6,3.6-2.9,3.5-5.4c-0.1-2.6-1.4-4.3-3.9-4.7
		c-2.6-0.4-5.2-0.3-7.9-0.5C345.1,652.1,345.1,655.6,345.1,659.7z"/>
	<path class="st1" d="M908.5,666.8c4.4,6.7,8.6,13.2,13.2,20.1c-2.8,0-5.2,0.1-7.5-0.1c-0.8-0.1-1.7-0.8-2.2-1.4
		c-2.9-4.4-5.9-8.7-8.6-13.2c-1.7-2.9-3.6-5.1-7.6-3.7c0,5.8,0,11.9,0,18.2c-2.8,0-5.4,0-8.1,0c0-14.7,0-29.4,0-44.3
		c6.4,0,12.9-0.5,19.3,0.2c5.3,0.6,8.8,4.2,9.7,9.8c0.8,4.9-1.5,10.2-5.9,13.1C910.1,666,909.4,666.3,908.5,666.8z M895.7,662
		c3.1-0.3,6.1-0.3,9-0.9c2.5-0.5,3.8-2.4,3.9-5.1c0.1-2.7-0.1-5.4-3.1-6.1c-3.2-0.8-6.5-0.9-9.8-1.3
		C895.7,653.4,895.7,657.4,895.7,662z"/>
	<path class="st1" d="M288.9,666.6c-0.1-5.5,0.4-10.1,2.6-14.5c4.2-8.3,11.2-11.8,21.2-10.2c7.6,1.2,13.4,7.6,14.6,16.2
		c0.9,6.1,0.7,12.1-1.6,17.8c-3.4,8.3-10.9,12.6-20.5,11.7c-7.8-0.7-13.5-6.1-15.4-14.6C289.3,670.7,289.1,668.3,288.9,666.6z
		 M320.1,665c-0.5-3.3-0.6-5.9-1.3-8.5c-1.4-5.4-5-8.2-10.3-8.3c-5.2-0.1-8.9,2.6-10.5,7.9c-1.8,5.8-1.7,11.6,0.2,17.3
		c1.3,4,3.8,7,8.6,7.2c5.2,0.2,9.3-1.8,11.1-6.4C319,671.2,319.5,667.8,320.1,665z"/>
	<path class="st1" d="M512.4,686.7c0-14.9,0-29.5,0-44.1c2.5-0.8,4,0.1,5.4,2c5.8,7.7,11.9,15.2,17.8,22.8c0.3,0.4,0.7,0.9,1.6,1.9
		c0-9.3,0-18,0-26.9c2.5,0,4.8,0,7.2,0c0,14.9,0,29.8,0,45.8c-1.7-1.1-3.2-1.6-4.1-2.6c-6.5-8.3-12.9-16.7-19.3-25.1
		c-0.3-0.4-0.6-0.7-1.2-1.6c0,9.6,0,18.5,0,27.7C517.2,686.7,514.8,686.7,512.4,686.7z"/>
	<path class="st1" d="M241.5,646c-1,1.9-1.9,3.7-3,5.7c-1.5-0.8-2.9-1.6-4.4-2.2c-7.7-3.3-15.7,0.3-18.3,8.3
		c-1.9,5.9-1.8,11.7,1.6,17.2c3.3,5.1,10.6,7.3,16.1,4.9c1.6-0.7,2.5-1.5,2.4-3.5c-0.2-2.2,0-4.5,0-7c-2,0-3.9,0-5.9,0
		c0-2.3,0-4.2,0-6.5c2.1,0,4.4,0,6.6,0c2.2,0,4.5,0,7,0c0,6.4,0,12.6,0,18.8c0,0.6-0.4,1.3-0.9,1.7c-8.4,7.5-25.9,4.9-32.2-4.6
		c-5.3-8.2-5.4-24.2,3.6-32.1C221.4,640.3,234.7,639.7,241.5,646z"/>
	<path class="st1" d="M113.7,686.8c-2.8,0-5.1,0-7.6,0c0-14.8,0-29.5,0-44.3c2.5,0,4.9,0,7.4,0c0,5.7,0,11.3,0,17.2
		c6.1,0,12,0,18.2,0c0-5.7,0-11.4,0-17.2c2.6,0,4.9,0,7.5,0c0,14.7,0,29.4,0,44.3c-2.3,0-4.7,0-7.3,0c0-6.6,0-13.2,0-20
		c-6.1,0-12,0-18.2,0C113.7,673.4,113.7,680,113.7,686.8z"/>
	<path class="st1" d="M152,642.5c9.3,0,18.5,0,27.8,0c0,2.1,0,4.1,0,6.5c-6.7,0-13.4,0-20.2,0c0,3.7,0,7.1,0,10.9
		c4.7,0,9.4,0,14.3,0c0,2.3,0,4.3,0,6.5c-4.7,0-9.4,0-14.3,0c0,4.5,0,8.9,0,13.5c6.6,0,13.3,0,20.1,0c0,2.5,0,4.7,0,7
		c-9.3,0-18.4,0-27.8,0C152,672.1,152,657.4,152,642.5z"/>
	<path class="st1" d="M381.3,686.9c-2.8,0-5.4,0-8.4,0c2.1-5.2,4.1-10.3,6.1-15.3c3.6-9.2,7.2-18.5,10.9-27.6
		c0.4-0.9,1.5-1.8,2.5-2.1c1.6-0.6,2,0.7,2.5,2c5.6,14.3,11.3,28.5,17.2,43.1c-2.6,0-4.9,0.1-7.2-0.1c-0.7-0.1-1.5-1-1.8-1.7
		c-1.1-2.4-1.3-5.8-3.1-7c-1.9-1.3-5.3-0.5-8-0.5c-7.3,0-7.3,0-9.7,6.8C382,685.2,381.7,685.9,381.3,686.9z M392.7,655.8
		c-0.2,0-0.4,0-0.6,0c-1.7,5.2-3.4,10.5-5.2,16c3.8,0,7.3,0,11.1,0C396.1,666.3,394.4,661,392.7,655.8z"/>
	<path class="st1" d="M474.1,686.9c-2.7,0-5.4,0-8.4,0c2.1-5.2,4.1-10.2,6-15.3c3.6-9.2,7.2-18.5,10.9-27.6c0.4-0.9,1.5-1.8,2.5-2.2
		c1.8-0.6,2.1,0.9,2.7,2.2c5.6,14.1,11.2,28.2,16.8,42.2c0,0.1,0,0.2-0.1,0.7c-2.3,0-4.7,0.1-7.1-0.1c-0.5,0-1-0.7-1.5-1.1
		c-0.2-0.2-0.2-0.5-0.3-0.8c-0.9-2.3-1.2-5.6-2.9-6.8c-1.9-1.2-5.1-0.5-7.7-0.5c-7.6,0-7.6,0-10.3,7.3
		C474.6,685.6,474.3,686.2,474.1,686.9z M485.5,655.9c-0.2,0-0.5-0.1-0.7-0.1c-1.7,5.3-3.4,10.5-5.1,15.9c3.9,0,7.3,0,11,0
		C488.9,666.3,487.2,661.1,485.5,655.9z"/>
	<path class="st1" d="M552.6,686.7c2-5.1,4-10.1,6-15.2c3.6-9.2,7.2-18.5,10.9-27.6c0.4-0.9,1.5-1.7,2.5-2.1c1.7-0.6,2,0.9,2.5,2.1
		c5.4,13.7,10.9,27.4,16.4,41.2c0.2,0.5,0.4,1.1,0.6,1.7c-0.4,0.1-0.7,0.2-0.9,0.2c-7.3,0.1-7.4,0.2-9.7-6.7c-0.7-2-1.7-2.7-3.8-2.6
		c-3.6,0.2-7.2,0.1-10.9,0c-1.5,0-2.4,0.4-2.7,1.9c-0.1,0.3-0.2,0.6-0.3,0.8C560.8,687.7,560.8,687.7,552.6,686.7z M572.4,655.9
		c-0.2,0-0.5-0.1-0.7-0.1c-1.7,5.3-3.4,10.5-5.1,15.9c3.9,0,7.3,0,11,0C575.8,666.3,574.1,661.1,572.4,655.9z"/>
	<path class="st1" d="M761.8,676.5c1.2,2.1,2.3,4,3.4,5.9c-8.1,9-25.7,6.5-31-4.7c-3.9-8.2-4-16.8,0-25.1
		c6.3-13.1,21.7-12.9,29.7-7.9c-1,2-2,3.9-2.9,5.8c-1.8-0.6-3.4-1.3-5.1-1.7c-6.6-1.5-11.9,1-14.7,7.1c-2.6,5.7-2.7,11.5-0.4,17.3
		c3.2,7.9,12.6,10.2,19.2,4.7C760.7,677.5,761.2,677.1,761.8,676.5z"/>
	<path class="st1" d="M797.5,644.3c-0.8,2.2-1.5,4.2-2,5.7c-3.5-0.6-6.7-1.6-10-1.7c-1.5,0-3.5,1.5-4.5,2.9
		c-1.2,1.8-0.7,4.1,1.1,5.5c2.4,1.9,5,3.3,7.5,5c2.5,1.8,5.4,3.3,7.4,5.6c4.9,5.8,3.1,14.5-3.6,18c-6.8,3.6-13.6,2.9-20.6-0.9
		c1-2.4,1.8-4.6,2.8-6.9c3.5,2.4,7.2,3.5,11.4,3c4.4-0.5,6.5-3.9,4.2-7.7c-1.3-2.1-3.6-3.7-5.7-5.2c-2.4-1.7-5.2-2.7-7.6-4.3
		c-4.2-2.9-6.1-8.3-4.7-13.2c1.2-4.3,5.8-8,10.6-8.4C788.4,641.4,793.1,641.4,797.5,644.3z"/>
	<path class="st1" d="M835.9,686.8c-2.8,0-5.1,0-7.6,0c0-14.8,0-29.5,0-44.4c9.7,0,19.2,0,29,0c0,2,0,4.1,0,6.5c-7,0-14,0-21.2,0
		c0,3.7,0,7.2,0,10.8c5,0,10.1,0,15.4,0c0,2.2,0,4.2,0,6.5c-5,0-10.1,0-15.5,0C835.9,673.3,835.9,679.9,835.9,686.8z"/>
	<path class="st1" d="M649.8,686.9c-2.6,0-5,0-7.7,0c0-5.2,0.1-10.3-0.1-15.5c-0.1-1.9-0.5-3.9-1.4-5.5c-3.8-7-7.9-13.9-11.8-20.8
		c-0.5-0.8-0.9-1.7-1.5-2.8c2.2,0,4.2-0.2,6.1,0.1c1,0.1,2.3,0.9,2.8,1.7c3.3,5.6,6.4,11.3,9.7,17.4c3-5.4,6-10.4,8.7-15.6
		c1.4-2.7,2.9-4.1,6-3.6c1.1,0.2,2.3,0,3.9,0c-0.5,1-0.8,1.7-1.2,2.5c-4.1,7.3-8.3,14.5-12.4,21.8c-0.7,1.3-1.1,2.9-1.1,4.4
		C649.7,676.2,649.8,681.4,649.8,686.9z"/>
	<path class="st1" d="M682.8,648.9c-5,0-9.5,0-14.2,0c0-2.2,0-4.2,0-6.4c12.2,0,24.4,0,36.7,0c0,2.1,0,4.2,0,6.5
		c-4.9,0-9.6,0-14.6,0c0,12.7,0,25.2,0,37.8c-2.7,0-5,0-7.8,0C682.8,674.2,682.8,661.7,682.8,648.9z"/>
	<path class="st1" d="M83.6,686.8c-2.8,0-5.1,0-7.7,0c0-12.6,0-25,0-37.8c-4.9,0-9.6,0-14.3,0c0-2.3,0-4.3,0-6.5
		c12.2,0,24.4,0,36.7,0c0,2.1,0,4.2,0,6.5c-4.9,0-9.6,0-14.6,0C83.6,661.7,83.6,674.2,83.6,686.8z"/>
	<path class="st1" d="M599.4,642.5c2.4,0,4.7,0,7.4,0c0,12.4,0,24.8,0,37.5c6.9,0,13.5,0,20.3,0c0,2.4,0,4.6,0,6.9
		c-9.2,0-18.3,0-27.7,0C599.4,672.2,599.4,657.5,599.4,642.5z"/>
	<path class="st1" d="M253.6,642.5c2.4,0,4.8,0,7.4,0c0,12.4,0,24.8,0,37.5c6.9,0,13.5,0,20.3,0c0,2.3,0,4.4,0,6.8
		c-9.1,0-18.3,0-27.7,0C253.6,672.1,253.6,657.5,253.6,642.5z"/>
	<path class="st1" d="M419.7,642.5c2.5,0,4.8,0,7.4,0c0,12.4,0,24.8,0,37.5c6.9,0,13.5,0,20.3,0c0,2.3,0,4.4,0,6.8
		c-9.1,0-18.3,0-27.7,0C419.7,672.1,419.7,657.5,419.7,642.5z"/>
	<path class="st1" d="M714,642.4c2.5,0,4.8,0,7.4,0c0,14.8,0,29.5,0,44.3c-2.4,0-4.8,0-7.4,0C714,672.1,714,657.4,714,642.4z"/>
	<path class="st1" d="M875.2,686.9c-2.6,0-4.9,0-7.4,0c0-14.8,0-29.5,0-44.4c2.4,0,4.8,0,7.4,0C875.2,657.2,875.2,671.9,875.2,686.9
		z"/>
	<path class="st2" d="M106,445.5c1.3,2.3,2.7,4.6,4,6.9c25.1,44.2,50.2,88.5,75.3,132.8c0.9,1.6,1.9,2.1,3.7,2.1
		c13.4-0.1,26.8,0,40.2,0c1.1,0,2.1,0,3.4,0c0,3.6,0,6.9,0,10.4c-1,0.1-1.8,0.1-2.7,0.1c-13.2,0-26.4,0-39.6,0.1
		c-1.9,0-2.9-0.6-3.9-2.3c-26.6-46.9-53.2-93.8-79.7-140.7c-1.4-2.6-1.2-6-1.8-9.1C105.3,445.7,105.7,445.6,106,445.5z"/>
	<path class="st2" d="M104.6,597.7c-13.1,0-25.9,0-39,0c0-3.4,0-6.7,0-10.2c12.9,0,25.8,0,39,0C104.6,590.8,104.6,594.1,104.6,597.7
		z"/>
	<path class="st2" d="M670,587.2c0,3.7,0,6.9,0,10.6c-1.2,0-2.3,0-3.4,0c-31.5,0-63,0.4-94.5-0.1c-18.4-0.3-35.4-5.6-50-17.8
		c-11.9-9.9-18.5-22.7-22.7-37.1c-0.9-3-1.6-6.1-2.5-9.2c0.3-0.1,0.6-0.2,0.9-0.4c0.5,1.1,1.1,2.1,1.5,3.3
		c3.6,10.9,9.1,20.7,17.5,28.7c12.8,12.2,28,19,45.4,20.8c7.4,0.8,14.8,1.1,22.2,1.2c27.3,0.1,54.6,0.1,81.9,0.1
		C667.4,587.2,668.6,587.2,670,587.2z"/>
	<path class="st2" d="M670,427.8c0,3.5,0,6.7,0,10.4c-1.2,0-2.4,0-3.5,0c-27.8,0-55.5-0.2-83.3,0.1c-6.2,0.1-12.7,1.3-18.6,3.2
		c-10.6,3.5-17,11.7-21.3,21.7c-0.5,1.1-1,2.1-1.8,2.9c2.5-14.5,7.3-27.7,21.6-34.5c4.9-2.3,10.6-3.8,16-3.9
		c29.6-0.4,59.2-0.2,88.9-0.2C668.7,427.6,669.2,427.7,670,427.8z"/>
	<path class="st2" d="M628.4,507.1c0,3.4,0,6.6,0,10.1c-17.1,0-34.2,0-51.4,0c0-3.3,0-6.6,0-10.1
		C594.1,507.1,611.1,507.1,628.4,507.1z"/>
	<path class="st2" d="M426.4,550.1c-2.6,23.7-13.2,38.9-37.2,44.6c-7.7,1.8-15.8,2.9-23.7,3c-36.4,0.3-72.8,0.1-109.2,0.1
		c-0.9,0-1.7-0.1-2.8-0.1c0-3.4,0-6.7,0-10.4c1.1,0,2.3,0,3.4,0c34.7,0,69.4,0,104.2,0c11.5,0,22.8-1.1,33.8-4.7
		c15-4.9,25.6-14.3,30.4-29.6c0.2-0.6,0.5-1.3,0.7-1.9C426,550.7,426.2,550.5,426.4,550.1z"/>
	<path class="st2" d="M299.6,518.6c-10.8-0.4-21.1-2.6-30.7-7.5c-13.3-6.7-20.1-18-22.6-32.3c-0.2-1.2-0.4-2.5-0.5-3.8
		c0-0.2,0.1-0.3,0,0c2.3,4.2,4.5,9,7.5,13.1c6.9,9.3,16.8,14,27.7,17c9.1,2.5,18.4,3.3,27.8,3.4c17.6,0.2,35.2,0,52.8,0.2
		c3.4,0,6.8,0.6,10.1,1.5c9.1,2.6,12.5,7.3,12.4,18.8c-6.6-8.8-16.1-9.3-25.6-9.9c-0.7-0.2-1.5-0.5-2.2-0.5
		C337.4,518.6,318.5,518.6,299.6,518.6z"/>
	<path class="st2" d="M314.5,439.2c-4.9,1-9.8,1.6-14.5,3.1c-5.2,1.6-9.2,5.3-12,10.7c-1.1-10.7,5-19.7,15.3-22.4
		c4.7-1.2,9.6-1.8,14.4-1.9c32.4-0.2,64.7-0.1,97.1-0.1c0.7,0,1.4,0.1,2.5,0.1c0,3.3,0,6.6,0,9.8c-1.3,0-2.5,0.1-3.8,0.1
		c-31.8,0-63.5,0-95.3,0C316.9,438.8,315.7,439.1,314.5,439.2z"/>
	<path class="st2" d="M314.5,439.2c1.2-0.2,2.5-0.5,3.7-0.5c31.8,0,63.5,0,95.3,0c1.3,0,2.5-0.1,3.8-0.1c-0.8,0.2-1.6,0.6-2.3,0.6
		c-33.2,0-66.4,0-99.6,0C315,439.3,314.7,439.3,314.5,439.2z"/>
	<path class="st2" d="M299.6,518.6c18.9,0,37.7,0,56.6,0c0.7,0,1.5,0.3,2.2,0.5c-18.9,0-37.7,0-56.6,0
		C301.1,519.1,300.4,518.8,299.6,518.6z"/>
	<path class="st2" d="M798.2,516.8c-23.4,0-46.9,0-70.3,0.1c-0.3,0-0.6-0.1-1.2-0.2c0-3.2,0-6.5,0-9.8c11.8,0,23.7,0,35.5,0
		c11.1,0,22.3,0,33.4,0c2.1,0,2.8,0.6,2.7,2.7C798.1,511.9,798.2,514.3,798.2,516.8z"/>
	<path class="st2" d="M686.1,597.5c0-3.4,0-6.6,0-10.1c12.6,0,25.2,0,37.9,0c0,3.3,0,6.6,0,10.1C711.5,597.5,699,597.5,686.1,597.5z
		"/>
	<path class="st2" d="M801.2,597.5c0-3.4,0-6.6,0-10c12.6,0,25.1,0,37.8,0c0,3.2,0,6.5,0,10C826.6,597.5,814,597.5,801.2,597.5z"/>
	<path class="st3" d="M798.2,516.8c0-2.4-0.1-4.9,0.1-7.3c0.1-2.1-0.6-2.7-2.7-2.7c-11.1,0.1-22.3,0-33.4,0c-11.8,0-23.7,0-35.5,0
		c0.7-0.2,1.4-0.6,2.1-0.6c22.8,0,45.6,0,68.4,0c0.4,0,0.8,0.1,1.9,0.2C798.7,509.9,798.4,513.3,798.2,516.8z"/>
	<path class="st2" d="M956.4,427.7c20,0,39.8,0,59.9,0c0,3.6,0,7.1,0,10.9c-19.9,0-39.8,0-59.9,0C956.4,435,956.4,431.5,956.4,427.7
		z"/>
	<path class="st2" d="M852.3,438.1c0-3.4,0-6.8,0-10.4c19.7,0,39.3,0,59.2,0c0,3.4,0,6.9,0,10.3
		C891.8,438.1,872.1,438.1,852.3,438.1z"/>
	<path class="st2" d="M953.7,586.8c0,3.7,0,7.2,0,10.8c-13.2,0-26.3,0-39.6,0c0-3.6,0-7.1,0-10.8
		C927.3,586.8,940.4,586.8,953.7,586.8z"/>
	<path class="st3" d="M852.3,438.1c19.7,0,39.5,0,59.2-0.1c-0.8,0.2-1.6,0.6-2.3,0.6c-18.3,0-36.6,0-54.8,0
		C853.7,438.7,853,438.3,852.3,438.1z"/>
	<path class="st2" d="M440.1,597.6c0-3.5,0-6.7,0-10.1c13.2,0,26.5,0,39.8,0c0,3.4,0,6.6,0,10.1
		C466.7,597.6,453.6,597.6,440.1,597.6z"/>
</g>
</svg>
