<?xml version="1.0" encoding="utf-8"?>
<!-- Generator: Adobe Illustrator 25.0.1, SVG Export Plug-In . SVG Version: 6.00 Build 0)  -->
<svg version="1.1" id="Layer_1" xmlns="http://www.w3.org/2000/svg" xmlns:xlink="http://www.w3.org/1999/xlink" x="0px" y="0px"
	 viewBox="0 0 1080 1080" style="enable-background:new 0 0 1080 1080;" xml:space="preserve">
<style type="text/css">
	.st0{fill:#ffffff;}
	.st1{font-family:'TrebuchetMS-Bold';}
	.st2{font-size:58.9655px;}
	.st3{fill:#E2000F;}
	.st4{fill:#E6202D;}
	.st5{fill:#575656;}
</style>
<g>
	<text transform="matrix(1 0 0 1 91.6831 677.6846)" class="st0 st1 st2">T</text>
	<text transform="matrix(1 0 0 1 130.1552 677.6846)" class="st0 st1 st2">H</text>
	<text transform="matrix(1 0 0 1 172.8051 677.625)" class="st0 st1 st2">E </text>
	<text transform="matrix(1 0 0 1 226.0455 677.625)" class="st0 st1 st2">G</text>
	<text transform="matrix(1 0 0 1 267.5527 677.6846)" class="st0 st1 st2">L</text>
	<text transform="matrix(1 0 0 1 302.8935 677.6846)" class="st0 st1 st2">O</text>
	<text transform="matrix(1 0 0 1 346.3964 677.6846)" class="st0 st1 st2">B</text>
	<text transform="matrix(1 0 0 1 383.8871 677.6846)" class="st0 st1 st2">A</text>
	<text transform="matrix(1 0 0 1 423.6293 677.6846)" class="st0 st1 st2">L</text>
	<text transform="matrix(1 0 0 1 470.2848 677.625)" class="st0 st1 st2">A</text>
	<text transform="matrix(1 0 0 1 510.2627 677.6846)" class="st0 st1 st2">N</text>
	<text transform="matrix(1 0 0 1 552.0176 677.6846)" class="st0 st1 st2">A</text>
	<text transform="matrix(1 0 0 1 591.8785 677.6846)" class="st0 st1 st2">L</text>
	<text transform="matrix(1 0 0 1 621.6602 677.6846)" class="st0 st1 st2">Y</text>
	<text transform="matrix(1 0 0 1 659.826 677.625)" class="st0 st1 st2">T</text>
	<text transform="matrix(1 0 0 1 698.5765 677.6846)" class="st0 st1 st2">I</text>
	<text transform="matrix(1 0 0 1 717.3822 677.6846)" class="st0 st1 st2">C</text>
	<text transform="matrix(1 0 0 1 755.8588 677.625)" class="st0 st1 st2">S </text>
	<text transform="matrix(1 0 0 1 806.0456 677.625)" class="st0 st1 st2">F</text>
	<text transform="matrix(1 0 0 1 842.7285 677.6846)" class="st0 st1 st2">I</text>
	<text transform="matrix(1 0 0 1 861.5391 677.6846)" class="st0 st1 st2">R</text>
	<text transform="matrix(1 0 0 1 899.361 677.6846)" class="st0 st1 st2">M</text>
</g>
<g>
	<path class="st3" d="M664.3,535.3c0,19.3,0,38.6,0.1,57.8c0,2.3-0.6,2.8-2.9,2.8c-31.1-0.1-62.2,0.2-93.4-0.2
		c-9-0.1-17.8-2.5-26.3-5.6c-7.1-2.5-13.1-6.7-19-11.3c-7.3-5.8-13-12.9-16.9-21.3c-4.2-9-6.8-18.4-8.6-28.2
		c-2.7-14.6-1.2-29.4-1.6-44c-0.5-17.6,4.1-33.9,12.5-49.2c6.3-11.4,15.3-19.9,26.7-26c9.2-5,18.9-7.6,29.3-8.3
		c7.1-0.5,14.1-1,21.2-1c25.4,0,50.7,0,76.1-0.1c2.3,0,2.8,0.6,2.8,2.8c-0.1,13.5-0.1,27,0,40.6c0,2.1-0.5,2.7-2.7,2.7
		c-27.6-0.1-55.3-0.2-82.9,0c-8.9,0.1-17.4,2.4-24.1,8.8c-5.6,5.4-9.2,12.1-11.1,19.5c-2.2,8.4-3.8,17-3.3,25.8
		c0.7,12,2.7,23.7,9.3,34.2c4.3,6.8,11,10.3,18.6,12.1c5,1.2,10.1,1.6,15.3,1.6c12.4,0.1,24.9,0,37.3,0.1c2.1,0,2.6-0.5,2.5-2.6
		c-0.1-7.7-0.1-15.4,0-23c0-2-0.4-2.6-2.5-2.6c-15.2,0.1-30.4,0-45.6,0.1c-2.1,0-2.5-0.5-2.5-2.6c0.1-13.7,0.1-27.4,0-41.1
		c0-1.9,0.4-2.4,2.4-2.4c29,0.1,58,0.1,87,0c2,0,2.3,0.7,2.3,2.5C664.3,496.6,664.3,515.9,664.3,535.3z"/>
	<path class="st3" d="M674.9,498.4c0-31.6,0-63.2-0.1-94.9c0-2.3,0.5-2.9,2.8-2.8c11.5,0.1,23.1,0.1,34.6,0c2.1,0,2.7,0.4,2.7,2.6
		c-0.1,22.7,0,45.3-0.1,68c0,2.4,0.6,3,3,2.9c20.7-0.1,41.4-0.1,62.1,0c2.1,0,2.7-0.5,2.7-2.7c-0.1-22.8,0-45.5-0.1-68.3
		c0-2.2,0.6-2.7,2.7-2.6c11.6,0.1,23.3,0.1,34.9,0c2.1,0,2.5,0.5,2.5,2.6c-0.1,63.4-0.1,126.8,0,190.3c0,1.9-0.4,2.4-2.4,2.4
		c-11.6-0.1-23.3-0.1-34.9,0c-2.2,0-2.9-0.5-2.9-2.8c0.1-23.4,0-46.8,0.1-70.2c0-2.3-0.6-2.8-2.8-2.8c-20.8,0.1-41.6,0.1-62.3,0
		c-2,0-2.6,0.4-2.6,2.5c0.1,23.5,0,47,0.1,70.5c0,2.3-0.6,2.8-2.9,2.8c-11.5-0.1-23.1-0.1-34.6,0c-2.2,0-2.7-0.6-2.7-2.7
		C674.9,561.6,674.9,530,674.9,498.4z"/>
	<path class="st3" d="M909.3,401.3c25.4,0,50.9,0,76.3-0.1c2.3,0,2.9,0.5,2.8,2.8c-0.1,13.3-0.1,26.7,0,40c0,2.1-0.4,2.7-2.6,2.7
		c-17.8-0.1-35.7,0-53.5-0.1c-2.1,0-2.7,0.5-2.7,2.7c0.1,47.8,0,95.6,0.1,143.4c0,2.7-0.7,3.3-3.3,3.2c-11.9-0.2-23.8-0.1-35.7,0
		c-2.3,0-2.8-0.5-2.8-2.8c0.1-47.8,0-95.6,0.1-143.4c0-2.5-0.7-3.1-3.1-3.1c-17.3,0.1-34.6,0-51.9,0.1c-2,0-2.8-0.3-2.8-2.6
		c0.1-13.5,0.1-27,0-40.6c0-2,0.6-2.4,2.4-2.4C858.2,401.3,883.8,401.3,909.3,401.3z"/>
	<path class="st3" d="M444.7,498.3c0-31.6,0-63.2-0.1-94.8c0-2.3,0.5-2.9,2.8-2.8c12.4,0.1,24.7,0.1,37.1,0c1.9,0,2.5,0.4,2.5,2.3
		c-0.1,63.5-0.1,127,0,190.5c0,1.9-0.4,2.4-2.4,2.4c-12.4-0.1-24.7-0.1-37.1,0c-2.6,0-2.9-0.9-2.9-3.1
		C444.7,561.4,444.7,529.9,444.7,498.3z"/>
	<path class="st4" d="M134.3,463.4c0,10.5-0.4,20.4,0.1,30.2c0.9,15.8-0.2,31.6,0.5,47.3c0.8,17.4,0.2,34.8,0.5,52.3
		c0,2.1-0.4,2.8-2.6,2.7c-12.1-0.1-24.2-0.1-36.3,0c-1.9,0-2.4-0.5-2.4-2.4c0.1-63.5,0.1-127,0-190.5c0-2,0.6-2.4,2.5-2.3
		c15.3,0.1,30.6,0.1,45.9,0c1.4,0,2.1,0.4,2.9,1.7c5.5,10,11.2,19.9,16.8,29.8c7.3,12.8,14.7,25.6,22,38.5
		c5.3,9.4,10.5,18.8,15.8,28.2c5.2,9.2,10.5,18.4,15.8,27.7c0.6-0.6,0.4-1.3,0.4-2c0-4.8,0.2-9.7,0-14.5c-0.8-17.7,0-35.4-0.6-53.1
		c-0.7-17.9-0.1-35.8-0.5-53.6c0-2,0.3-2.8,2.6-2.8c11.7,0.1,23.4,0.1,35.2,0c1.9,0,2.4,0.5,2.4,2.4c-0.1,63.5-0.1,127,0,190.5
		c0,2-0.6,2.4-2.5,2.4c-13.5-0.1-27.1-0.1-40.6,0c-1.8,0-2.7-0.5-3.7-2.2c-8.5-15.2-17.1-30.2-25.7-45.3
		c-7.7-13.6-15.4-27.3-23.1-40.9C151.3,493,143,478.6,134.3,463.4z"/>
	<path class="st4" d="M325.7,595.9c-17.8,0-35.7-0.1-53.5,0.1c-2.4,0-2.8-0.7-2.8-2.9c0.1-13.6,0.1-27.2,0-40.8c0-2.3,0.4-3,2.9-3
		c30.8,0.1,61.7,0.2,92.5,0c6.7,0,13.4-0.5,19.8-3.2c4.3-1.8,7.6-4.6,8.7-9.1c0.9-3.5-0.9-6.6-3.4-8.9c-3.5-3.3-7.9-4.7-12.7-5.1
		c-19.1-1.3-38.2-0.1-57.3-0.6c-11.4-0.3-22.7-1.9-33.1-6.9c-12.5-6-20.1-15.8-23-29.4c-2.7-12.4-2-25-1.4-37.5
		c0.7-13.6,5.8-26,16.5-35.3c5.4-4.7,12-7.4,18.8-9.3c6.7-1.8,13.5-2.7,20.5-2.9c27.8-1.1,55.6-0.2,83.4-0.5
		c7.7-0.1,15.4,0.1,23.1-0.1c2.2,0,2.9,0.3,2.9,2.8c-0.1,13.9-0.1,27.8,0,41.7c0,2.3-0.5,2.9-2.8,2.8c-32-0.1-64.1-0.1-96.1,0
		c-6.1,0-12,1.7-17.2,5.2c-3.6,2.4-5.5,5.9-6.4,9.8c-0.7,2.9,1.4,5.3,3.3,7.1c4.4,4,9.8,6.3,15.8,6.3c16.8,0.1,33.7,0.1,50.5,0
		c9.8,0,19.5,0.5,29.2,2.3c5.8,1.1,10.7,4.3,15.5,7.5c8.9,5.8,13.4,14.1,15.3,24.4c2.3,12.1,1.8,24.3,1.4,36.4
		c-0.3,9.8-2.9,19.2-8.3,27.6c-6.3,9.8-15.6,15.2-26.7,18.2c-9.7,2.6-19.7,3.4-29.7,3.3C356.3,595.9,341,595.9,325.7,595.9z"/>
	<path class="st5" d="M500.2,530.6c3.8,12.1,8.9,23.5,18.3,32.4c10.4,9.8,22.5,16.1,36.6,18.7c8.6,1.6,17.2,2.2,26,2.2
		c26.1-0.2,52.2,0,78.3-0.1c2.3,0,2.9,0.5,2.9,2.9c-0.1,7.1,0,7.1-7.1,7.1c-27.6,0-55.3,0-82.9,0c-11.1,0-21.8-2.2-31.9-6.7
		c-16.5-7.4-28.4-19.3-34.7-36.5c-2.2-5.9-3.9-12-5.3-18.1C500.1,531.9,500.2,531.2,500.2,530.6z"/>
	<path class="st5" d="M542.1,471.6c0.2-4,1.2-7.9,2.5-11.6c2.9-8.3,7.5-15.4,15.1-20.2c5-3.2,10.6-4.9,16.4-4.9
		c27.8-0.2,55.6-0.1,83.4-0.1c2.2,0,2.7,0.7,2.7,2.8c-0.1,7.2,0,7.2-7,7.2c-24.7,0-49.4,0-74.1,0c-7.1,0-13.9,1.2-20.3,4.1
		c-6.8,3.1-11.4,8.5-14.9,14.9C544.5,466.1,543.1,468.7,542.1,471.6z"/>
	<path class="st5" d="M599,508.7c7,0,14.1,0.1,21.1-0.1c2.6-0.1,3.3,0.8,3.1,3.2c-0.2,1.4-0.1,2.7,0,4.1c0.2,2-0.3,2.7-2.5,2.7
		c-14.5-0.1-28.9-0.1-43.4,0c-2.1,0-2.7-0.7-2.5-2.7c0.2-1.5,0.2-3.1,0-4.7c-0.3-2.3,0.7-2.7,2.8-2.7
		C584.7,508.8,591.9,508.7,599,508.7z"/>
	<path class="st5" d="M748.5,518.1c-10.3,0-20.7-0.1-31,0.1c-2.1,0-2.7-0.6-2.5-2.6c0.2-1.7,0.1-3.5,0-5.2c-0.1-1.8,0.6-2.1,2.2-2.1
		c21,0,42.1,0.1,63.1,0c1.8,0,2.4,0.6,2.3,2.3c-0.1,1.7-0.2,3.5,0,5.2c0.2,2-0.6,2.4-2.5,2.4C769.5,518,759,518.1,748.5,518.1z"/>
	<path class="st5" d="M694.7,593.7c-5.2,0-10.4-0.1-15.6,0c-1.6,0-2.1-0.5-2-2c0.1-2.1,0.1-4.2,0-6.3c0-1.2,0.5-1.6,1.6-1.6
		c10.8,0,21.6,0,32.4,0c1.3,0,1.9,0.5,1.7,1.7c0,0.1,0,0.2,0,0.3c0.3,7.9,0.3,7.9-7.6,7.9C701.6,593.7,698.1,593.7,694.7,593.7z"/>
	<path class="st5" d="M802.5,593.7c-5,0-10.1-0.1-15.1,0.1c-2.4,0.1-3-0.7-2.8-2.9c0.2-1.4,0.1-2.9,0-4.4c-0.2-2,0.3-2.7,2.5-2.7
		c10.2,0.1,20.5,0.1,30.7,0c2.2,0,2.7,0.7,2.5,2.7c-0.1,1.5-0.2,3.1,0,4.7c0.3,2.3-0.7,2.7-2.8,2.7
		C812.6,593.6,807.6,593.7,802.5,593.7z"/>
	<path class="st5" d="M908.7,593.7c-5.5,0-11,0-16.5,0c-1.5,0-2.2-0.4-2.1-2c0.1-2.2,0.1-4.4,0-6.6c-0.1-1.4,0.4-1.9,1.8-1.9
		c11.3,0.1,22.5,0.1,33.8,0c1.5,0,1.8,0.6,1.8,2c-0.1,2-0.1,4,0,6c0.1,1.9-0.4,2.5-2.4,2.5C919.6,593.6,914.2,593.7,908.7,593.7z"/>
	<path class="st5" d="M466,583.9c5.5,0,11,0.1,16.5,0c1.8,0,2.4,0.5,2.3,2.3c-0.1,1.9-0.1,3.8,0,5.8c0.1,1.5-0.5,1.9-1.9,1.9
		c-11.3,0-22.7,0-34,0c-1.6,0-2.1-0.5-2-2c0.1-1.9,0.1-3.8,0-5.8c-0.1-1.7,0.5-2.2,2.2-2.1C454.7,583.9,460.4,583.9,466,583.9z"/>
	<path class="st3" d="M94.8,498c0-31.2,0-62.3-0.1-93.5c0-2.6,0.6-3.4,3.3-3.4c14.4,0.1,28.7,0.1,43.1,0c1.8,0,2.9,0.3,3.9,2.1
		c5.1,9.3,10.5,18.6,15.7,27.8c6.1,10.7,12.2,21.4,18.2,32.1c5.1,9,10.1,17.9,15.2,26.9c6.7,11.9,13.5,23.7,20.3,35.6
		c0.4,0.7,0.5,1.8,1.6,1.5c1-0.3,0.6-1.4,0.6-2.2c0-6.8,0.4-13.5-0.1-20.3c-1-16.1,0.2-32.1-0.6-48.2c-0.8-17.4-0.1-34.9-0.5-52.3
		c-0.1-2.4,0.6-3.1,3.1-3.1c11.1,0.1,22.2,0.1,33.2,0c2.1,0,2.8,0.5,2.8,2.7c-0.1,62.9-0.1,125.7,0,188.6c0,2.3-0.8,2.9-3,2.9
		c-13-0.1-26-0.1-39,0c-1.7,0-2.8-0.5-3.7-2.1c-7.7-13.8-15.6-27.6-23.4-41.4c-8.8-15.4-17.6-30.8-26.4-46.3
		c-6.6-11.6-13.1-23.2-19.6-34.7c-1.2-2.1-2.5-4.3-3.7-6.4c-0.3-0.6-0.5-1.6-1.5-1.2c-0.8,0.3-0.5,1.1-0.5,1.7c0,4.2-0.1,8.4,0,12.6
		c0.5,21.8,0.2,43.6,0.7,65.4c0.4,16.3,0,32.7,0.4,49c0.1,2.4-0.5,3.3-3.1,3.3c-11.3-0.2-22.7-0.1-34,0c-2.5,0-3-0.8-3-3.1
		C94.8,560.9,94.8,529.5,94.8,498z"/>
	<path class="st3" d="M325.8,595.4c-17.5,0-35-0.1-52.5,0.1c-2.5,0-3.5-0.5-3.4-3.3c0.1-13.2,0.1-26.3,0-39.5c0-2.3,0.7-2.9,3-2.9
		c30.7,0.1,61.3,0.2,92,0c6.9,0,13.8-0.4,20.4-3.2c3.7-1.6,6.8-3.8,8.2-7.9c1.3-3.5,0-9-3.1-11.4c-3.7-2.9-7.9-4.4-12.6-4.8
		c-13.3-1.2-26.7-0.2-40-0.5c-4.8-0.1-9.7,0.1-14.6,0c-12.2-0.2-24.2-1.6-35.4-6.8c-9.9-4.6-17.3-11.7-21.2-22.1
		c-2.7-7.2-3.9-14.7-3.8-22.4c0.1-6.1-0.2-12.3,0.1-18.4c0.6-14.9,5.3-28.3,16.9-38.4c6-5.2,13.4-8,21.2-9.8
		c5.9-1.3,11.8-2.1,17.8-2.3c35.1-1.2,70.3-0.1,105.4-0.6c2.5,0,3.1,0.7,3,3.1c-0.1,13.3-0.1,26.7,0,40c0,2.4-0.6,3.1-3.1,3.1
		c-31.9-0.1-63.7-0.1-95.6,0c-6.2,0-12.1,1.6-17.3,5.1c-3.8,2.5-5.9,6.3-6.8,10.5c-0.7,3,1.4,5.7,3.6,7.6c4.5,4,9.9,6.3,15.9,6.3
		c17.4,0.1,34.8,0,52.2,0c8.9,0,17.8,0.6,26.6,2.1c7.1,1.2,12.8,5.1,18.4,9.1c8.9,6.3,12.2,15.5,13.7,25.7
		c1.6,10.6,1.4,21.3,0.9,31.9c-0.5,11-3.3,21.6-10.1,30.6c-6.3,8.3-14.9,13-24.7,15.6c-9,2.4-18.2,3.3-27.5,3.3
		C357.5,595.4,341.6,595.4,325.8,595.4z"/>
	<path class="st5" d="M134.9,452c4.2,7.3,8.3,14.5,12.5,21.8c6,10.6,12.1,21.2,18.1,31.8c5.8,10.3,11.6,20.6,17.4,30.9
		c6.4,11.3,13,22.5,19.4,33.8c2.1,3.7,4.2,7.4,6.1,11.2c0.9,1.7,2,2.4,4,2.4c12.6-0.1,25.3,0,37.9-0.1c2.2,0,2.9,0.6,2.7,2.7
		c-0.2,2.3,0.7,5.3-0.5,6.6c-1.4,1.6-4.5,0.5-6.8,0.5c-10.5,0.1-21,0-31.6,0.1c-2.1,0-3.4-0.6-4.4-2.4c-4.1-7.3-8.2-14.7-12.3-21.9
		c-5.7-10-11.5-20-17.2-30.1c-5.1-8.9-10.1-18-15.2-26.9c-5.7-10-11.5-20-17.2-30.1c-4.3-7.5-8.5-15.1-12.8-22.6
		C133.7,457.3,134.6,454.7,134.9,452z"/>
	<path class="st5" d="M114.5,593.7c-5.2,0-10.4-0.1-15.6,0c-1.8,0-2.7-0.3-2.5-2.4c0.2-1.7,0.2-3.5,0-5.2c-0.2-2,0.7-2.4,2.5-2.4
		c10.6,0.1,21.2,0.1,31.8,0c1.8,0,2.7,0.3,2.5,2.4c-0.2,1.7-0.2,3.5,0,5.2c0.2,2-0.7,2.4-2.5,2.4
		C125.3,593.7,119.9,593.7,114.5,593.7z"/>
	<path class="st5" d="M433.5,550.3c-0.5,5.9-2.1,11.6-4.4,17c-5.8,13.7-17.1,20.4-31,23.7c-8,1.9-16,2.8-24.2,2.8
		c-33,0-66.1,0-99.1,0c-2.3,0-3.3-0.3-3.3-3c0.2-6.9,0.1-6.9,7.1-6.9c31.7,0,63.5,0.2,95.2-0.1c10.3-0.1,20.6-1.1,30.5-4.3
		c7.4-2.4,13.9-6.1,19.3-11.7C428.4,562.8,431.5,556.9,433.5,550.3z"/>
	<path class="st5" d="M394.1,528.9c-4.3-5.3-9.9-7.6-16.1-8c-19.3-1.3-38.5-0.1-57.8-0.7c-11.3-0.3-22.5-2-32.8-7.2
		c-12.4-6.2-19.3-16.3-21.7-29.8c-0.2-1.2-1.1-2.4-0.3-3.9c2.1,5.5,4.8,10.5,8.9,14.7c6.6,6.8,14.7,10.6,23.7,13
		c7.9,2.1,16,2.9,24.2,2.8c15.1-0.1,30.2-0.2,45.3,0c4.6,0.1,9.2,0.4,13.7,1.5C390.4,513.8,394.3,518.4,394.1,528.9z"/>
	<path class="st5" d="M304.3,458c-0.4-11.5,5.6-18.5,16-21.1c4.7-1.2,9.5-1.6,14.3-1.6c29.2-0.1,58.4,0,87.6-0.1
		c2.9,0,3.7,0.8,3.3,3.5c-0.2,1.3-0.2,2.8,0,4.1c0.4,2.6-0.8,2.9-3.1,2.9c-31.2-0.1-62.4-0.1-93.6,0c-7.5,0-14.5,2-20.4,6.9
		C306.7,454,305.7,456.1,304.3,458z"/>
	<polygon class="st5" points="277.3,583.9 271.6,583.9 271.6,593.8 284.9,593.8 284,583.9 	"/>
	<rect x="446.8" y="583.8" class="st5" width="38.4" height="10"/>
	<rect x="677" y="583.8" class="st5" width="35.8" height="10"/>
	<rect x="784.6" y="583.8" class="st5" width="35.8" height="10"/>
	<rect x="714.9" y="508.1" class="st5" width="67.7" height="10"/>
	<rect x="832.2" y="434.7" class="st5" width="56.1" height="10"/>
	<rect x="929.6" y="434.7" class="st5" width="56.5" height="10"/>
</g>
</svg>
